<?xml version="1.0" encoding="UTF-8"?>
<svg version="1.1" xmlns="http://www.w3.org/2000/svg" width="400" height="400">
<path d="M0 0 C132 0 264 0 400 0 C400 132 400 264 400 400 C268 400 136 400 0 400 C0 268 0 136 0 0 Z " fill="#FDFDFD" transform="translate(0,0)"/>
<path d="M0 0 C38.300625 -0.020625 76.60125 -0.04125 116.0625 -0.0625 C134.08951538 -0.07615601 134.08951538 -0.07615601 152.48071289 -0.09008789 C167.34851074 -0.09460449 167.34851074 -0.09460449 174.34593201 -0.09544373 C179.151723 -0.09636175 183.95750254 -0.10005339 188.76329041 -0.10557556 C235.25509344 -0.15633458 235.25509344 -0.15633458 257.22134292 0.32500565 C258.91338835 0.36194777 260.60549796 0.39607479 262.29766095 0.42716968 C264.57626669 0.470971 266.8541241 0.52776686 269.13230896 0.58937073 C270.39627219 0.62017007 271.66023542 0.65096941 272.96250057 0.68270206 C276 1 276 1 279 3 C279 3.66 279 4.32 279 5 C280.32 5 281.64 5 283 5 C286.48956529 9.67287808 288.42415193 13.42043336 287.66418457 19.3104248 C287.04827178 25.56235396 286.87502664 31.73907091 286.84851074 38.02062988 C286.84384544 39.05594314 286.83918015 40.09125639 286.83437347 41.15794277 C286.82279524 44.5538626 286.81665516 47.94976939 286.81054688 51.34570312 C286.80259366 53.80253233 286.79420486 56.25936016 286.78541565 58.71618652 C286.76743612 63.98433436 286.75228578 69.25248215 286.73963928 74.52064514 C286.72125053 82.14274517 286.69659032 89.76481549 286.67026538 97.38689178 C286.62759515 109.76377766 286.58844804 122.1406717 286.55224609 134.51757812 C286.55008329 135.25656875 286.54792049 135.99555937 286.54569215 136.75694364 C286.52816091 142.75660473 286.51080462 148.75626632 286.49348927 154.75592804 C286.47831789 160.01241578 286.46308773 165.26890335 286.44775391 170.52539062 C286.44559504 171.2658971 286.44343617 172.00640357 286.44121188 172.76934963 C286.40510702 185.11292294 286.36516299 197.45648092 286.32245111 209.80003309 C286.29631993 217.40530695 286.27365487 225.01057619 286.25546753 232.61587328 C286.24130694 238.43456825 286.22218012 244.25324001 286.20121574 250.07191467 C286.19345196 252.45963041 286.18738577 254.84735235 286.18312263 257.2350769 C286.17708571 260.48849765 286.16504229 263.74184243 286.15148926 266.99523926 C286.15104528 268.41919722 286.15104528 268.41919722 286.15059233 269.87192202 C286.10240041 278.53052475 286.10240041 278.53052475 285 282 C281.79352031 283.60323984 278.30863635 283.13289851 274.78707886 283.12025452 C273.92782401 283.12110894 273.06856917 283.12196337 272.1832763 283.12284368 C269.2873652 283.1244984 266.39151128 283.11897723 263.49560547 283.11352539 C261.42637127 283.11324349 259.35713697 283.11340131 257.28790283 283.1139679 C251.65596077 283.11425576 246.02403985 283.10836076 240.39210272 283.10139394 C234.51173858 283.09515862 228.63137401 283.09455646 222.75100708 283.09336853 C211.60920568 283.09025574 200.46741405 283.08204305 189.32561696 283.07201904 C176.64383009 283.06085628 163.96204277 283.05534704 151.28025222 283.05032361 C125.18682939 283.0398604 99.09341524 283.02226197 73 283 C71.64971041 279.29717908 70.75021177 276.15999866 70.75949097 272.21633911 C70.75674164 271.30777664 70.75399231 270.39921417 70.75115967 269.46311951 C70.7619455 267.99468346 70.7619455 267.99468346 70.77294922 266.49658203 C70.77265717 265.45207382 70.77236511 264.40756561 70.77206421 263.33140564 C70.77345393 259.89012247 70.78899852 256.4490577 70.8046875 253.0078125 C70.80841889 250.61742267 70.81126527 248.22703131 70.81326294 245.8366394 C70.82088941 239.55334226 70.84052953 233.27013797 70.8626709 226.98687744 C70.88315051 220.57199357 70.89226919 214.15709466 70.90234375 207.7421875 C70.92377626 195.16141878 70.95751449 182.58071434 71 170 C74.94742697 168.68419101 78.71087049 168.87688961 82.82421875 168.90234375 C83.58786743 168.90335083 84.35151611 168.90435791 85.13830566 168.90539551 C87.98805241 168.91062336 90.83777773 168.92458464 93.6875 168.9375 C100.060625 168.958125 106.43375 168.97875 113 169 C113 182.2 113 195.4 113 209 C125.54 209 138.08 209 151 209 C151 209.66 151 210.32 151 211 C145.90967159 211.02468084 140.81937785 211.04285082 135.72900391 211.05493164 C133.99657586 211.05996682 132.26415208 211.06679532 130.53173828 211.07543945 C128.04458567 211.08754065 125.55748913 211.09323638 123.0703125 211.09765625 C122.29317902 211.10281754 121.51604553 211.10797882 120.71536255 211.11329651 C115.22774341 211.11387171 115.22774341 211.11387171 113 210 C113 210.66 113 211.32 113 212 C118.49923749 212.07411371 123.99818479 212.12858464 129.49780273 212.16479492 C131.36894799 212.17988873 133.24005783 212.20036589 135.11108398 212.22631836 C137.79940526 212.26267593 140.48725913 212.27972015 143.17578125 212.29296875 C144.43217155 212.31619453 144.43217155 212.31619453 145.71394348 212.33988953 C150.02733968 212.54990074 150.02733968 212.54990074 153.55754089 210.47871399 C154.27155815 209.74675056 154.27155815 209.74675056 155 209 C155.99 209 156.98 209 158 209 C157.84660156 207.80503906 157.69320312 206.61007813 157.53515625 205.37890625 C156.81690506 198.91464557 156.64842526 192.43439231 156.4375 185.9375 C156.2209375 179.5334375 156.2209375 179.5334375 156 173 C155.67 184.22 155.34 195.44 155 207 C154.67 207 154.34 207 154 207 C154 194.13 154 181.26 154 168 C125.95 168 97.9 168 69 168 C69 206.28 69 244.56 69 284 C10.84615385 284 10.84615385 284 3.875 278.5625 C2 276 2 276 2 272 C1.34 272 0.68 272 0 272 C0 182.24 0 92.48 0 0 Z " fill="#0173B9" transform="translate(58,27)"/>
<path d="M0 0 C78.21 0 156.42 0 237 0 C237 22.44 237 44.88 237 68 C153.84 68.495 153.84 68.495 69 69 C69 81.54 69 94.08 69 107 C110.085 107.495 110.085 107.495 152 108 C152 127.8 152 147.6 152 168 C124.61 168 97.22 168 69 168 C69 206.28 69 244.56 69 284 C10.84615385 284 10.84615385 284 3.875 278.5625 C2 276 2 276 2 272 C1.34 272 0.68 272 0 272 C0 182.24 0 92.48 0 0 Z " fill="#020202" transform="translate(58,27)"/>
<path d="M0 0 C54.12 0 108.24 0 164 0 C164 51.81 164 103.62 164 157 C151.79 157 139.58 157 127 157 C127 117.73 127 78.46 127 38 C112.48 38 97.96 38 83 38 C75.51462288 37.94552718 68.03137702 37.88460899 60.546875 37.78125 C58.74888404 37.75858888 56.95088994 37.73617643 55.15289307 37.71398926 C50.60293251 37.65722343 46.05302052 37.59727247 41.50311279 37.53643799 C35.94628726 37.46289231 30.38940583 37.39369045 24.83253479 37.32368469 C16.55497816 37.2189549 8.27750622 37.10901702 0 37 C0 24.79 0 12.58 0 0 Z " fill="#FCFEFD" transform="translate(129,96)"/>
<path d="M0 0 C0.33 0 0.66 0 1 0 C1 87.78 1 175.56 1 266 C-67.26753019 266.0806627 -67.26753019 266.0806627 -95.75 266.09765625 C-102.26953135 266.10157205 -108.78906261 266.10561303 -115.30859375 266.10986328 C-116.12572051 266.11039078 -116.94284727 266.11091828 -117.78473544 266.11146176 C-130.97981941 266.12016241 -144.17488597 266.13593118 -157.36995961 266.15430559 C-170.90979608 266.17300296 -184.44962342 266.18411638 -197.98947227 266.18817699 C-206.34552181 266.19092238 -214.70152215 266.19959624 -223.05755655 266.21583293 C-228.78615809 266.22639779 -234.51473416 266.22960175 -240.24334474 266.22700275 C-243.54936157 266.22572069 -246.85527411 266.22878836 -250.16127968 266.23841095 C-253.74570127 266.24833415 -257.32991085 266.24597831 -260.91433716 266.24050903 C-261.95908899 266.24633472 -263.00384083 266.2521604 -264.08025181 266.25816262 C-269.122889 266.23730895 -273.27925023 266.01538532 -278 264 C-278 263.34 -278 262.68 -278 262 C-275.36 262.66 -272.72 263.32 -270 264 C-252.84 264.33 -235.68 264.66 -218 265 C-218 226.72 -218 188.44 -218 149 C-189.29 149 -160.58 149 -131 149 C-130.09206462 153.5396769 -129.78443265 157.7676829 -129.68359375 162.36328125 C-129.6524221 163.55125557 -129.6524221 163.55125557 -129.62062073 164.76322937 C-129.55552196 167.27956928 -129.49642577 169.79600872 -129.4375 172.3125 C-129.394277 174.02409861 -129.35066152 175.73568735 -129.30664062 177.44726562 C-129.19988153 181.63140984 -129.09850365 185.81565362 -129 190 C-129.99 190 -130.98 190 -132 190 C-132.33 190.99 -132.66 191.98 -133 193 C-136.08357631 194.54178816 -139.32809088 194.14203232 -142.7109375 194.1328125 C-143.47548248 194.13376923 -144.24002747 194.13472595 -145.02774048 194.13571167 C-146.6467497 194.1363927 -148.26576164 194.13454378 -149.88476562 194.13037109 C-152.35813578 194.12503637 -154.83132312 194.13031107 -157.3046875 194.13671875 C-158.87760457 194.13605767 -160.45052152 194.13477588 -162.0234375 194.1328125 C-162.76210052 194.13483673 -163.50076355 194.13686096 -164.2618103 194.13894653 C-167.64688013 194.12357079 -170.76430754 194.05962352 -174 193 C-174 192.34 -174 191.68 -174 191 C-161.46 191.33 -148.92 191.66 -136 192 C-136 191.34 -136 190.68 -136 190 C-148.54 190 -161.08 190 -174 190 C-174 176.8 -174 163.6 -174 150 C-187.86 150.33 -201.72 150.66 -216 151 C-215.89195027 164.86476069 -215.77986681 178.72947261 -215.66066074 192.59414196 C-215.60547171 199.03190087 -215.55205804 205.46966435 -215.50268555 211.9074707 C-215.45498284 218.11906702 -215.40263774 224.33060839 -215.34705925 230.54213905 C-215.3266625 232.91320746 -215.30794501 235.28429092 -215.29092598 237.65538597 C-215.26682278 240.97368184 -215.23677608 244.29187423 -215.20532227 247.61010742 C-215.19668907 249.08393639 -215.19668907 249.08393639 -215.18788147 250.58753967 C-215.17809265 251.49472748 -215.16830383 252.40191528 -215.15821838 253.33659363 C-215.15176583 254.12103946 -215.14531328 254.90548529 -215.1386652 255.7137022 C-215.02341879 258.47394132 -215.02341879 258.47394132 -214 263 C-144.04 263 -74.08 263 -2 263 C-1.93941406 244.685 -1.87882812 226.37 -1.81640625 207.5 C-1.77592398 195.9153624 -1.73520281 184.33072639 -1.69335938 172.74609375 C-1.67139384 166.66129584 -1.64948897 160.57649771 -1.62768555 154.49169922 C-1.62495036 153.72908079 -1.62221517 152.96646236 -1.6193971 152.18073428 C-1.57534217 139.87277891 -1.53471141 127.56481449 -1.49534739 115.25684333 C-1.45486566 102.62325224 -1.41069959 89.9896779 -1.36312145 77.35611153 C-1.33388492 69.56207935 -1.30751379 61.76804834 -1.28482103 53.97399431 C-1.26710502 47.9950543 -1.24426013 42.01614503 -1.21950912 36.03722954 C-1.21016409 33.58628354 -1.20247972 31.13533057 -1.19658089 28.68437386 C-1.18827635 25.33715517 -1.17398759 21.99001292 -1.15821838 18.64282227 C-1.15724028 17.67393318 -1.15626217 16.7050441 -1.15525442 15.70679474 C-1.12301791 10.38240495 -0.77442128 5.26932983 0 0 Z " fill="#3F7A94" transform="translate(345,46)"/>
<path d="M0 0 C4.95 0 9.9 0 15 0 C15 15.18 15 30.36 15 46 C10.38 46 5.76 46 1 46 C0.86722656 44.33710938 0.73445313 42.67421875 0.59765625 40.9609375 C0.41940351 38.76561422 0.24101074 36.57030231 0.0625 34.375 C-0.02451172 33.28058594 -0.11152344 32.18617188 -0.20117188 31.05859375 C-0.28818359 29.99511719 -0.37519531 28.93164062 -0.46484375 27.8359375 C-0.543396 26.86188965 -0.62194824 25.8878418 -0.70288086 24.88427734 C-1.01087938 21.89438866 -1.47612313 18.95904078 -2 16 C-2.33 16.66 -2.66 17.32 -3 18 C-3.99 18 -4.98 18 -6 18 C-6 18.99 -6 19.98 -6 21 C-6.66 21 -7.32 21 -8 21 C-8 22.32 -8 23.64 -8 25 C-8.66 25 -9.32 25 -10 25 C-10 26.65 -10 28.3 -10 30 C-10.66 30 -11.32 30 -12 30 C-12.33 33.96 -12.66 37.92 -13 42 C-13.66 42 -14.32 42 -15 42 C-15 43.32 -15 44.64 -15 46 C-18.96 46 -22.92 46 -27 46 C-28.42258812 42.17679443 -29.24042276 39.08718695 -29 35 C-29.66 35 -30.32 35 -31 35 C-31 34.01 -31 33.02 -31 32 C-31.66 32 -32.32 32 -33 32 C-33.66 29.69 -34.32 27.38 -35 25 C-35.495 26.485 -35.495 26.485 -36 28 C-36.66 28 -37.32 28 -38 28 C-38 29.32 -38 30.64 -38 32 C-38.66 32 -39.32 32 -40 32 C-40.12375 33.010625 -40.2475 34.02125 -40.375 35.0625 C-40.98085335 38.87937612 -41.87193912 42.31500112 -43 46 C-47.29 46 -51.58 46 -56 46 C-59.42857143 34.42857143 -59.42857143 34.42857143 -59 28 C-59.66 28 -60.32 28 -61 28 C-61 27.01 -61 26.02 -61 25 C-61.66 25 -62.32 25 -63 25 C-63 23.68 -63 22.36 -63 21 C-63.66 21 -64.32 21 -65 21 C-65 18.69 -65 16.38 -65 14 C-65.66 14 -66.32 14 -67 14 C-68.37020997 9.88937009 -68.06276637 6.33087938 -68 2 C-64.04 2 -60.08 2 -56 2 C-56 2.99 -56 3.98 -56 5 C-55.34 5 -54.68 5 -54 5 C-54 7.31 -54 9.62 -54 12 C-53.34 12 -52.68 12 -52 12 C-50.80712589 15.87684087 -50 18.91621923 -50 23 C-49.01 23 -48.02 23 -47 23 C-47 21.68 -47 20.36 -47 19 C-46.34 19 -45.68 19 -45 19 C-45 17.35 -45 15.7 -45 14 C-44.34 14 -43.68 14 -43 14 C-43 12.35 -43 10.7 -43 9 C-42.34 9 -41.68 9 -41 9 C-41 6.69 -41 4.38 -41 2 C-37.37 2 -33.74 2 -30 2 C-29.505 3.485 -29.505 3.485 -29 5 C-28.34 5 -27.68 5 -27 5 C-26.49193553 6.72681437 -25.99389533 8.45657979 -25.5 10.1875 C-25.2215625 11.15042969 -24.943125 12.11335938 -24.65625 13.10546875 C-24.03322392 15.85345876 -23.87697188 18.19598416 -24 21 C-23.34 21 -22.68 21 -22 21 C-22 22.32 -22 23.64 -22 25 C-21.34 25 -20.68 25 -20 25 C-20 23.68 -20 22.36 -20 21 C-19.34 21 -18.68 21 -18 21 C-17.95101562 20.13117188 -17.90203125 19.26234375 -17.8515625 18.3671875 C-17.77679688 17.21476562 -17.70203125 16.06234375 -17.625 14.875 C-17.55539063 13.73804688 -17.48578125 12.60109375 -17.4140625 11.4296875 C-17 8 -17 8 -15 2 C-10.05 2 -5.1 2 0 2 C0 1.34 0 0.68 0 0 Z " fill="#0D0D0D" transform="translate(264,340)"/>
<path d="M0 0 C6.1875 -0.0825 12.375 -0.165 18.75 -0.25 C21.67117676 -0.30462402 21.67117676 -0.30462402 24.65136719 -0.36035156 C26.19985858 -0.3720371 27.74836228 -0.38222925 29.296875 -0.390625 C30.09689941 -0.41108887 30.89692383 -0.43155273 31.72119141 -0.45263672 C35.40656435 -0.4549473 37.54670463 -0.33361571 40.55957031 1.88378906 C42 4 42 4 41.75 6.25 C41.5025 6.8275 41.255 7.405 41 8 C40.67 7.01 40.34 6.02 40 5 C38.68 5 37.36 5 36 5 C35.67 4.34 35.34 3.68 35 3 C34.113125 3.020625 33.22625 3.04125 32.3125 3.0625 C29 3 29 3 26.75 2.4375 C23.19184332 1.87142962 19.99523241 2.32385356 16.43359375 2.7578125 C14 3 14 3 10.625 2.8125 C7.15682509 3.06022678 6.22943143 4.45207837 4 7 C3.34 7 2.68 7 2 7 C2.00368717 8.11467274 2.00737434 9.22934547 2.01117325 10.37779617 C2.09989524 37.47603597 2.16566675 64.57425697 2.20724869 91.67261124 C2.22789088 104.77707322 2.25604323 117.88143937 2.30175781 130.98583984 C2.34157473 142.40505878 2.36742074 153.82420833 2.37635398 165.24349475 C2.38157742 171.29227202 2.39388898 177.34085075 2.42292023 183.38956451 C2.45000793 189.07926921 2.4584584 194.76869299 2.45243073 200.45845604 C2.45353394 202.54989077 2.46152713 204.6413346 2.4768219 206.7327137 C2.49664566 209.58243181 2.49196695 212.43108129 2.48101807 215.28082275 C2.49849512 216.52984938 2.49849512 216.52984938 2.51632524 217.80410886 C2.47863619 221.41893735 2.319359 223.56321509 0.15548325 226.52273178 C-2.86100393 228.59009215 -4.86857741 228.3602336 -8.5 228.1875 C-15.76132677 227.96745979 -22.87779417 228.26604783 -30.12109375 228.82104492 C-30.92804688 228.87236572 -31.735 228.92368652 -32.56640625 228.9765625 C-33.63290405 229.05511475 -33.63290405 229.05511475 -34.72094727 229.13525391 C-37 229 -37 229 -43 227 C-43.33 187.4 -43.66 147.8 -44 107 C-61.61022086 107.0487765 -61.61022086 107.0487765 -79 109 C-79 109.66 -79 110.32 -79 111 C-79.99 111 -80.98 111 -82 111 C-82 142.02 -82 173.04 -82 205 C-82.33 205 -82.66 205 -83 205 C-83 192.13 -83 179.26 -83 166 C-83.66 166 -84.32 166 -85 166 C-85 146.2 -85 126.4 -85 106 C-90.82398438 106.01160156 -96.64796875 106.02320313 -102.6484375 106.03515625 C-106.33073028 106.04026377 -110.0130187 106.0450776 -113.6953125 106.04882812 C-119.54428002 106.05481362 -125.39323194 106.06190613 -131.2421875 106.07543945 C-135.95596106 106.08627835 -140.6697179 106.09227897 -145.38350296 106.09487724 C-147.1848947 106.09672968 -148.98628549 106.10034683 -150.78767014 106.10573006 C-153.30426791 106.11295376 -155.82079593 106.11399037 -158.33740234 106.11352539 C-159.08762161 106.11712067 -159.83784088 106.12071594 -160.61079407 106.12442017 C-165.77189568 106.11405216 -165.77189568 106.11405216 -168 105 C-168 92.46 -168 79.92 -168 67 C-165.12628313 65.56314157 -162.67035198 65.87732251 -159.45748901 65.87974548 C-158.77791047 65.87889106 -158.09833193 65.87803663 -157.3981601 65.87715632 C-155.11030297 65.87550303 -152.8225184 65.88102041 -150.53466797 65.88647461 C-148.8989258 65.88675654 -147.2631835 65.88659863 -145.62744141 65.8860321 C-141.17727753 65.88574436 -136.72714042 65.89163742 -132.27698278 65.89860606 C-127.62981647 65.90484338 -122.98264959 65.9054437 -118.33547974 65.90663147 C-109.53113093 65.90974367 -100.72679449 65.91795556 -91.92245114 65.92798096 C-81.9008317 65.93914555 -71.87921168 65.94465342 -61.85758758 65.94967639 C-41.23838327 65.96013826 -20.61919593 65.97848236 0 66 C0 44.22 0 22.44 0 0 Z M-166 67 C-166 79.21 -166 91.42 -166 104 C-152.3222976 104.18034286 -152.3222976 104.18034286 -138.64453125 104.35546875 C-133.02325264 104.42630116 -127.40198437 104.49759543 -121.78076172 104.57275391 C-117.2224398 104.6336595 -112.66408691 104.69156783 -108.10570526 104.74781799 C-106.41158561 104.76916997 -104.71747676 104.79140911 -103.02338409 104.81480408 C-81.6818803 105.10784307 -60.3455023 105 -39 105 C-39 144.27 -39 183.54 -39 224 C-26.79 224 -14.58 224 -2 224 C-2 172.19 -2 120.38 -2 67 C-56.12 67 -110.24 67 -166 67 Z " fill="#5188A8" transform="translate(295,29)"/>
<path d="M0 0 C5.49925421 -0.04940929 10.99837942 -0.08572395 16.49780273 -0.10986328 C18.36891938 -0.11992567 20.24002028 -0.13357691 22.11108398 -0.15087891 C24.79935591 -0.17511684 27.48742006 -0.18648063 30.17578125 -0.1953125 C31.01337479 -0.20563507 31.85096832 -0.21595764 32.71394348 -0.22659302 C38.65838488 -0.22774341 38.65838488 -0.22774341 42 2 C42 2.66 42 3.32 42 4 C43.32 4 44.64 4 46 4 C49.48956529 8.67287808 51.42415193 12.42043336 50.66418457 18.3104248 C50.04827178 24.56235396 49.87502664 30.73907091 49.84851074 37.02062988 C49.84384544 38.05594314 49.83918015 39.09125639 49.83437347 40.15794277 C49.82279524 43.5538626 49.81665516 46.94976939 49.81054688 50.34570312 C49.80259366 52.80253233 49.79420486 55.25936016 49.78541565 57.71618652 C49.76743612 62.98433436 49.75228578 68.25248215 49.73963928 73.52064514 C49.72125053 81.14274517 49.69659032 88.76481549 49.67026538 96.38689178 C49.62759515 108.76377766 49.58844804 121.1406717 49.55224609 133.51757812 C49.55008329 134.25656875 49.54792049 134.99555937 49.54569215 135.75694364 C49.52816091 141.75660473 49.51080462 147.75626632 49.49348927 153.75592804 C49.47831789 159.01241578 49.46308773 164.26890335 49.44775391 169.52539062 C49.44559504 170.2658971 49.44343617 171.00640357 49.44121188 171.76934963 C49.40510702 184.11292294 49.36516299 196.45648092 49.32245111 208.80003309 C49.29631993 216.40530695 49.27365487 224.01057619 49.25546753 231.61587328 C49.24130694 237.43456825 49.22218012 243.25324001 49.20121574 249.07191467 C49.19345196 251.45963041 49.18738577 253.84735235 49.18312263 256.2350769 C49.17708571 259.48849765 49.16504229 262.74184243 49.15148926 265.99523926 C49.15119327 266.94454457 49.15089728 267.89384988 49.15059233 268.87192202 C49.10240041 277.53052475 49.10240041 277.53052475 48 281 C44.79352031 282.60323984 41.30863635 282.13289851 37.78707886 282.12025452 C36.92782401 282.12110894 36.06856917 282.12196337 35.1832763 282.12284368 C32.2873652 282.1244984 29.39151128 282.11897723 26.49560547 282.11352539 C24.42637127 282.11324349 22.35713697 282.11340131 20.28790283 282.1139679 C14.65596077 282.11425576 9.02403985 282.10836076 3.39210272 282.10139394 C-2.48826142 282.09515862 -8.36862599 282.09455646 -14.24899292 282.09336853 C-25.39079432 282.09025574 -36.53258595 282.08204305 -47.67438304 282.07201904 C-60.35616991 282.06085628 -73.03795723 282.05534704 -85.71974778 282.05032361 C-111.81317061 282.0398604 -137.90658476 282.02226197 -164 282 C-165.35028959 278.29717908 -166.24978823 275.15999866 -166.24050903 271.21633911 C-166.24325836 270.30777664 -166.24600769 269.39921417 -166.24884033 268.46311951 C-166.24164978 267.48416214 -166.23445923 266.50520477 -166.22705078 265.49658203 C-166.22734283 264.45207382 -166.22763489 263.40756561 -166.22793579 262.33140564 C-166.22654607 258.89012247 -166.21100148 255.4490577 -166.1953125 252.0078125 C-166.19158111 249.61742267 -166.18873473 247.22703131 -166.18673706 244.8366394 C-166.17911059 238.55334226 -166.15947047 232.27013797 -166.1373291 225.98687744 C-166.11684949 219.57199357 -166.10773081 213.15709466 -166.09765625 206.7421875 C-166.07622374 194.16141878 -166.04248551 181.58071434 -166 169 C-162.05257303 167.68419101 -158.28912951 167.87688961 -154.17578125 167.90234375 C-153.41213257 167.90335083 -152.64848389 167.90435791 -151.86169434 167.90539551 C-149.01194759 167.91062336 -146.16222227 167.92458464 -143.3125 167.9375 C-136.939375 167.958125 -130.56625 167.97875 -124 168 C-124 181.2 -124 194.4 -124 208 C-111.46 208 -98.92 208 -86 208 C-86 208.66 -86 209.32 -86 210 C-91.01707535 210.04961356 -96.03400635 210.08582043 -101.05126953 210.10986328 C-102.75637298 210.1198914 -104.46145936 210.13351726 -106.16650391 210.15087891 C-108.62406642 210.17526803 -111.08140061 210.18651512 -113.5390625 210.1953125 C-114.29555084 210.20563507 -115.05203918 210.21595764 -115.83145142 210.22659302 C-120.27822943 210.22752561 -123.86910217 209.65121642 -128 208 C-128.81085562 205.02686273 -128.99349536 202.95638066 -128.53515625 199.8828125 C-127.93452638 195.5249578 -127.85303026 191.32778667 -127.875 186.9375 C-127.87113281 186.16083984 -127.86726563 185.38417969 -127.86328125 184.58398438 C-127.8705738 180.2777341 -128.14513218 176.24041577 -129 172 C-132.04913228 170.98888907 -132.04913228 170.98888907 -135 172 C-138.39399639 171.85227437 -141.76190606 171.5977063 -145.14648438 171.31640625 C-148.44874615 171.06820692 -150.82356456 170.94118819 -154 172 C-156.64 172.33 -159.28 172.66 -162 173 C-162 208.31 -162 243.62 -162 280 C-126.34863392 280.0291187 -126.34863392 280.0291187 -90.69726562 280.04882812 C-76.16576791 280.05476944 -61.63427598 280.06176647 -47.1027832 280.07543945 C-36.52115192 280.0853912 -25.93952531 280.09185461 -15.35788947 280.09408849 C-9.75244398 280.09539476 -4.14701187 280.09847535 1.45842934 280.10573006 C6.73028683 280.112498 12.00212539 280.11461537 17.27398682 280.11310768 C19.21263418 280.11338366 21.15128215 280.1153842 23.08992577 280.11920547 C25.72947379 280.12415476 28.36894957 280.12299366 31.00849915 280.12025452 C32.16851227 280.12462378 32.16851227 280.12462378 33.35196 280.12908131 C36.50719627 280.12018468 38.9831976 280.0056008 42 279 C43.32 279 44.64 279 46 279 C46.02290629 246.19217157 46.04051853 213.38434522 46.05106533 180.57651062 C46.05231598 176.70017699 46.05361031 172.82384337 46.05493164 168.94750977 C46.05519395 168.17582595 46.05545626 167.40414214 46.05572652 166.60907397 C46.06007369 154.12640689 46.067956 141.64374443 46.0771528 129.16108008 C46.08651584 116.34555662 46.09206123 103.53003557 46.09408849 90.71450883 C46.09545821 82.81145418 46.09977895 74.90841258 46.10791647 67.00536195 C46.11384464 60.93762478 46.11445225 54.86989876 46.11310768 48.80215836 C46.11338227 46.31860206 46.11536447 43.83504527 46.11920547 41.35149193 C46.124203 37.95279041 46.12297601 34.55414416 46.12025452 31.15544128 C46.12316736 30.17972693 46.1260802 29.20401258 46.12908131 28.19873112 C46.11518944 21.75112962 45.68281984 15.41073007 45 9 C44.01 8.67 43.02 8.34 42 8 C41.67 7.01 41.34 6.02 41 5 C40.01 4.34 39.02 3.68 38 3 C38 2.34 38 1.68 38 1 C25.46 1 12.92 1 0 1 C0 0.67 0 0.34 0 0 Z " fill="#126DA6" transform="translate(295,28)"/>
<path d="M0 0 C12.87 0 25.74 0 39 0 C39 12.87 39 25.74 39 39 C26.13 39 13.26 39 0 39 C0 26.13 0 13.26 0 0 Z " fill="#FAFEFD" transform="translate(171,196)"/>
<path d="M0 0 C1.37478516 0.00483398 1.37478516 0.00483398 2.77734375 0.00976562 C3.72738281 0.01814453 4.67742187 0.02652344 5.65625 0.03515625 C6.60628906 0.03966797 7.55632812 0.04417969 8.53515625 0.04882812 C10.3027471 0.05752935 12.07032991 0.06828776 13.83789062 0.08178711 C15.94396772 0.09620318 18.05012357 0.09765625 20.15625 0.09765625 C33.23317308 1.63611779 33.23317308 1.63611779 38.15625 4.09765625 C38.88700648 6.41171845 39.55763258 8.74594494 40.15625 11.09765625 C40.81625 11.09765625 41.47625 11.09765625 42.15625 11.09765625 C42.135625 11.98453125 42.115 12.87140625 42.09375 13.78515625 C42.05287956 16.96738507 42.05287956 16.96738507 42.6521166 19.51137352 C43.13990472 22.01380242 43.2826192 24.24610224 43.28488445 26.79067993 C43.2881089 27.71020132 43.29133335 28.62972271 43.2946555 29.57710838 C43.2931069 30.57856203 43.2915583 31.58001568 43.28996277 32.61181641 C43.29222833 33.68245142 43.29449388 34.75308643 43.29682809 35.85616493 C43.30316675 39.44969379 43.30233881 43.04318492 43.30151367 46.63671875 C43.30450519 49.21059213 43.30790771 51.78446506 43.31169128 54.3583374 C43.31999325 60.62719634 43.3227459 66.89604587 43.32330366 73.16490984 C43.32377893 78.2596198 43.3258342 83.35432666 43.32900429 88.44903564 C43.33780872 102.8926006 43.34242386 117.33615813 43.34167381 131.77972579 C43.34161388 132.9474041 43.34161388 132.9474041 43.34155273 134.13867188 C43.34151185 134.91807389 43.34147097 135.6974759 43.34142885 136.50049615 C43.34102218 149.13887246 43.35059756 161.77721901 43.3646911 174.41558671 C43.3790472 187.39170367 43.38596174 200.3678061 43.38509732 213.3439312 C43.38476515 220.62946709 43.38752151 227.91497175 43.39827538 235.20050049 C43.40831968 242.04915713 43.40805291 248.8977467 43.40075874 255.74640656 C43.39970984 258.26312608 43.4020938 260.77984967 43.4081192 263.29656219 C43.41579871 266.72561876 43.4112211 270.15444474 43.40348816 273.58349609 C43.40863172 274.58494974 43.41377529 275.58640339 43.41907471 276.61820412 C43.39614424 281.20311339 43.37275258 284.94883201 41.15625 289.09765625 C40.82625 289.09765625 40.49625 289.09765625 40.15625 289.09765625 C40.15565291 288.52688652 40.15505582 287.95611678 40.15444064 287.36805099 C40.11854701 253.53987754 40.06190857 219.71180722 39.97832905 185.88371831 C39.96831159 181.82197468 39.95846746 177.76023064 39.94873047 173.69848633 C39.9467891 172.8898659 39.94484772 172.08124547 39.94284752 171.24812139 C39.91182608 158.15490511 39.89484647 145.06170636 39.88305578 131.96846025 C39.87064496 118.533659 39.84314513 105.09894974 39.80163693 91.66420656 C39.77649951 83.37416875 39.76313289 75.08428351 39.76482043 66.79420704 C39.76485018 61.10945019 39.75022389 55.42484876 39.72408572 49.74015247 C39.70943722 46.46026276 39.70341099 43.18075598 39.71044731 39.90083122 C39.71706438 36.34276093 39.69921963 32.78562234 39.67523193 29.22764587 C39.68299235 28.19358878 39.69075277 27.15953168 39.69874835 26.09413952 C39.62397399 19.83700011 38.64654231 16.29412215 35.15625 11.09765625 C35.15625 10.43765625 35.15625 9.77765625 35.15625 9.09765625 C33.83625 9.09765625 32.51625 9.09765625 31.15625 9.09765625 C31.15625 8.43765625 31.15625 7.77765625 31.15625 7.09765625 C27.71225653 5.94965843 24.92295105 5.89198843 21.28855896 5.79237366 C20.58051514 5.77242352 19.87247133 5.75247338 19.14297163 5.73191869 C16.7444342 5.66700362 14.3457965 5.61034219 11.94702148 5.55493164 C11.09911006 5.53418079 10.25119863 5.51342995 9.37759292 5.49205029 C-14.62950676 4.91345438 -38.64249122 4.87274127 -62.65530849 4.79433322 C-69.19344073 4.77206178 -75.73155278 4.74487974 -82.26966858 4.71827698 C-93.19417375 4.67432322 -104.11868746 4.63354194 -115.04321289 4.5949707 C-126.27173676 4.55531787 -137.50025148 4.5138258 -148.72875977 4.4699707 C-149.4264315 4.46724643 -150.12410324 4.46452216 -150.84291654 4.46171533 C-154.3445868 4.44803101 -157.84625692 4.4343117 -161.34792697 4.42057502 C-190.17984844 4.30751536 -219.01179064 4.20058049 -247.84375 4.09765625 C-247.84375 3.76765625 -247.84375 3.43765625 -247.84375 3.09765625 C-169.30375 3.09765625 -90.76375 3.09765625 -9.84375 3.09765625 C-9.51375 2.43765625 -9.18375 1.77765625 -8.84375 1.09765625 C-5.88572572 0.05734111 -3.11456525 -0.01957142 0 0 Z " fill="#CDEAEC" transform="translate(305.84375,22.90234375)"/>
<path d="M0 0 C11.55 0 23.1 0 35 0 C35 3.96 35 7.92 35 12 C27.41 12 19.82 12 12 12 C12.33 13.65 12.66 15.3 13 17 C19.27 17.33 25.54 17.66 32 18 C32 21.3 32 24.6 32 28 C25.4 28 18.8 28 12 28 C12 33.28 12 38.56 12 44 C8.04 44 4.08 44 0 44 C0 29.48 0 14.96 0 0 Z " fill="#080808" transform="translate(60,342)"/>
<path d="M0 0 C7.59 0 15.18 0 23 0 C23 0.66 23 1.32 23 2 C23.99 2 24.98 2 26 2 C26 2.66 26 3.32 26 4 C26.66 4 27.32 4 28 4 C28 4.66 28 5.32 28 6 C28.66 6 29.32 6 30 6 C30 15.24 30 24.48 30 34 C20.76 34 11.52 34 2 34 C2 33.34 2 32.68 2 32 C1.34 32 0.68 32 0 32 C0 31.34 0 30.68 0 30 C-0.66 30 -1.32 30 -2 30 C-2.19573608 28.56359829 -2.38127816 27.12580496 -2.5625 25.6875 C-2.71912109 24.48673828 -2.71912109 24.48673828 -2.87890625 23.26171875 C-3 21 -3 21 -2 18 C-1.34 18 -0.68 18 0 18 C0 17.34 0 16.68 0 16 C3.465 15.505 3.465 15.505 7 15 C7 14.34 7 13.68 7 13 C14.42857143 12.85714286 14.42857143 12.85714286 18 14 C18 13.01 18 12.02 18 11 C17.34 11 16.68 11 16 11 C16 10.34 16 9.68 16 9 C11.05 9 6.1 9 1 9 C0.67 6.03 0.34 3.06 0 0 Z " fill="#0A0A0A" transform="translate(99,352)"/>
<path d="M0 0 C0 0.66 0 1.32 0 2 C0.99 2 1.98 2 3 2 C3 2.66 3 3.32 3 4 C3.66 4 4.32 4 5 4 C5 4.99 5 5.98 5 7 C5.66 7 6.32 7 7 7 C8 11 8 11 8 20 C1.07 20 -5.86 20 -13 20 C-13 20.99 -13 21.98 -13 23 C-12.34 23 -11.68 23 -11 23 C-11 23.66 -11 24.32 -11 25 C-8.03 25 -5.06 25 -2 25 C-2 24.34 -2 23.68 -2 23 C-0.35 23 1.3 23 3 23 C3 23.66 3 24.32 3 25 C3.66 25 4.32 25 5 25 C5 25.66 5 26.32 5 27 C5.66 27 6.32 27 7 27 C7 27.99 7 28.98 7 30 C6.34 30 5.68 30 5 30 C5 30.66 5 31.32 5 32 C3.68 32 2.36 32 1 32 C1 32.66 1 33.32 1 34 C-4.61 34 -10.22 34 -16 34 C-16 33.34 -16 32.68 -16 32 C-17.32 32 -18.64 32 -20 32 C-20.33 30.68 -20.66 29.36 -21 28 C-21.66 28 -22.32 28 -23 28 C-23 27.01 -23 26.02 -23 25 C-23.66 25 -24.32 25 -25 25 C-25 19.72 -25 14.44 -25 9 C-24.34 9 -23.68 9 -23 9 C-23 8.01 -23 7.02 -23 6 C-22.34 6 -21.68 6 -21 6 C-20.67 4.68 -20.34 3.36 -20 2 C-19.34 2 -18.68 2 -18 2 C-18 1.34 -18 0.68 -18 0 C-11.84098757 -1.23180249 -6.21324498 -0.73030908 0 0 Z " fill="#0F0F0F" transform="translate(341,352)"/>
<path d="M0 0 C0 0.66 0 1.32 0 2 C1.32 2 2.64 2 4 2 C3.34 4.97 2.68 7.94 2 11 C0.68 11 -0.64 11 -2 11 C-2 10.34 -2 9.68 -2 9 C-2.99 9 -3.98 9 -5 9 C-5 8.34 -5 7.68 -5 7 C-7.31 7 -9.62 7 -12 7 C-12 8.32 -12 9.64 -12 11 C-11.01 11 -10.02 11 -9 11 C-9 11.66 -9 12.32 -9 13 C-6.03 13.33 -3.06 13.66 0 14 C0 14.66 0 15.32 0 16 C1.32 16 2.64 16 4 16 C5.17635297 18.35270593 5.13359359 19.820752 5.125 22.4375 C5.12886719 23.61119141 5.12886719 23.61119141 5.1328125 24.80859375 C5 27 5 27 4 30 C3.34 30 2.68 30 2 30 C2 30.66 2 31.32 2 32 C1.34 32 0.68 32 0 32 C0 32.66 0 33.32 0 34 C-6.27 34 -12.54 34 -19 34 C-19 33.34 -19 32.68 -19 32 C-20.32 32 -21.64 32 -23 32 C-23 31.34 -23 30.68 -23 30 C-23.66 30 -24.32 30 -25 30 C-25 29.01 -25 28.02 -25 27 C-24.34 27 -23.68 27 -23 27 C-23 26.34 -23 25.68 -23 25 C-22.34 25 -21.68 25 -21 25 C-21 24.34 -21 23.68 -21 23 C-19.68 23 -18.36 23 -17 23 C-17 23.66 -17 24.32 -17 25 C-13.7 25 -10.4 25 -7 25 C-7 24.34 -7 23.68 -7 23 C-7.680625 22.87625 -8.36125 22.7525 -9.0625 22.625 C-12.4277412 21.90899123 -15.70013425 20.97054875 -19 20 C-19 19.34 -19 18.68 -19 18 C-19.66 18 -20.32 18 -21 18 C-21 17.34 -21 16.68 -21 16 C-21.66 16 -22.32 16 -23 16 C-23 12.37 -23 8.74 -23 5 C-22.34 5 -21.68 5 -21 5 C-21 4.01 -21 3.02 -21 2 C-20.01 2 -19.02 2 -18 2 C-18 1.34 -18 0.68 -18 0 C-12.14072182 -1.67407948 -5.89014391 -1.52003714 0 0 Z " fill="#0F0F0F" transform="translate(307,352)"/>
<path d="M0 0 C2.14576637 -0.02685938 4.29162645 -0.04633088 6.4375 -0.0625 C7.63246094 -0.07410156 8.82742187 -0.08570313 10.05859375 -0.09765625 C13 0 13 0 14 1 C14.14115161 3.67058851 14.04247107 6.32432238 14 9 C16.64 9 19.28 9 22 9 C22 12.63 22 16.26 22 20 C19.36 20 16.72 20 14 20 C14 23.96 14 27.92 14 32 C16.64 32 19.28 32 22 32 C22.0270043 33.45823212 22.04639787 34.91660675 22.0625 36.375 C22.07410156 37.18710937 22.08570313 37.99921875 22.09765625 38.8359375 C22 41 22 41 21 43 C15.72 43 10.44 43 5 43 C4.67 41.68 4.34 40.36 4 39 C3.34 39 2.68 39 2 39 C2 32.07 2 25.14 2 18 C0.35 18 -1.3 18 -3 18 C-3 15.03 -3 12.06 -3 9 C-2.01 9 -1.02 9 0 9 C0 6.03 0 3.06 0 0 Z " fill="#121212" transform="translate(171,343)"/>
<path d="M0 0 C4.95 0 9.9 0 15 0 C15 15.18 15 30.36 15 46 C10.38 46 5.76 46 1 46 C0.80083984 43.50566406 0.80083984 43.50566406 0.59765625 40.9609375 C0.41940351 38.76561422 0.24101074 36.57030231 0.0625 34.375 C-0.02451172 33.28058594 -0.11152344 32.18617188 -0.20117188 31.05859375 C-0.28818359 29.99511719 -0.37519531 28.93164062 -0.46484375 27.8359375 C-0.543396 26.86188965 -0.62194824 25.8878418 -0.70288086 24.88427734 C-1.01087938 21.89438866 -1.47612313 18.95904078 -2 16 C-2.33 16.66 -2.66 17.32 -3 18 C-3.99 18 -4.98 18 -6 18 C-6 17.34 -6 16.68 -6 16 C-5.34 16 -4.68 16 -4 16 C-3.94392578 15.14728516 -3.94392578 15.14728516 -3.88671875 14.27734375 C-3.43021378 8.91564807 -2.36510918 4.8330492 0 0 Z " fill="#999999" transform="translate(264,340)"/>
<path d="M0 0 C6.1875 -0.0825 12.375 -0.165 18.75 -0.25 C21.67117676 -0.30462402 21.67117676 -0.30462402 24.65136719 -0.36035156 C26.19985858 -0.3720371 27.74836228 -0.38222925 29.296875 -0.390625 C30.09689941 -0.41108887 30.89692383 -0.43155273 31.72119141 -0.45263672 C35.40656435 -0.4549473 37.54670463 -0.33361571 40.55957031 1.88378906 C42 4 42 4 41.75 6.25 C41.5025 6.8275 41.255 7.405 41 8 C40.67 7.01 40.34 6.02 40 5 C38.68 5 37.36 5 36 5 C35.67 4.34 35.34 3.68 35 3 C34.113125 3.020625 33.22625 3.04125 32.3125 3.0625 C29 3 29 3 26.75 2.4375 C23.19184332 1.87142962 19.99523241 2.32385356 16.43359375 2.7578125 C14 3 14 3 10.625 2.8125 C7.15682509 3.06022678 6.22943143 4.45207837 4 7 C3.34 7 2.68 7 2 7 C2 26.8 2 46.6 2 67 C1.34 67 0.68 67 0 67 C0 118.81 0 170.62 0 224 C-0.66 224 -1.32 224 -2 224 C-2 172.19 -2 120.38 -2 67 C-56.12 67 -110.24 67 -166 67 C-166 66.67 -166 66.34 -166 66 C-111.22 66 -56.44 66 0 66 C0 44.22 0 22.44 0 0 Z " fill="#6691A7" transform="translate(295,29)"/>
<path d="M0 0 C1.74216797 0.15275391 1.74216797 0.15275391 3.51953125 0.30859375 C4.39996094 0.39238281 5.28039062 0.47617187 6.1875 0.5625 C6.1875 1.2225 6.1875 1.8825 6.1875 2.5625 C7.1775 2.5625 8.1675 2.5625 9.1875 2.5625 C9.1875 3.2225 9.1875 3.8825 9.1875 4.5625 C9.8475 4.5625 10.5075 4.5625 11.1875 4.5625 C11.1875 6.2125 11.1875 7.8625 11.1875 9.5625 C9.8675 9.5625 8.5475 9.5625 7.1875 9.5625 C6.8575 10.8825 6.5275 12.2025 6.1875 13.5625 C4.8675 13.5625 3.5475 13.5625 2.1875 13.5625 C2.1875 12.9025 2.1875 12.2425 2.1875 11.5625 C1.1975 11.5625 0.2075 11.5625 -0.8125 11.5625 C-0.8125 10.9025 -0.8125 10.2425 -0.8125 9.5625 C-2.1325 9.5625 -3.4525 9.5625 -4.8125 9.5625 C-4.8125 10.2225 -4.8125 10.8825 -4.8125 11.5625 C-6.1325 11.5625 -7.4525 11.5625 -8.8125 11.5625 C-8.8125 14.8625 -8.8125 18.1625 -8.8125 21.5625 C-8.1525 21.5625 -7.4925 21.5625 -6.8125 21.5625 C-6.8125 22.2225 -6.8125 22.8825 -6.8125 23.5625 C-2.1925 23.5625 2.4275 23.5625 7.1875 23.5625 C7.1875 24.2225 7.1875 24.8825 7.1875 25.5625 C8.5075 25.5625 9.8275 25.5625 11.1875 25.5625 C11.1875 26.8825 11.1875 28.2025 11.1875 29.5625 C9.8675 29.8925 8.5475 30.2225 7.1875 30.5625 C6.8575 31.8825 6.5275 33.2025 6.1875 34.5625 C0.2475 34.5625 -5.6925 34.5625 -11.8125 34.5625 C-11.8125 33.9025 -11.8125 33.2425 -11.8125 32.5625 C-13.1325 32.5625 -14.4525 32.5625 -15.8125 32.5625 C-15.8125 31.9025 -15.8125 31.2425 -15.8125 30.5625 C-16.8025 30.2325 -17.7925 29.9025 -18.8125 29.5625 C-18.8125 28.2425 -18.8125 26.9225 -18.8125 25.5625 C-19.4725 25.5625 -20.1325 25.5625 -20.8125 25.5625 C-20.8125 19.6225 -20.8125 13.6825 -20.8125 7.5625 C-19.4925 7.2325 -18.1725 6.9025 -16.8125 6.5625 C-16.8125 5.9025 -16.8125 5.2425 -16.8125 4.5625 C-16.1525 4.5625 -15.4925 4.5625 -14.8125 4.5625 C-14.8125 3.9025 -14.8125 3.2425 -14.8125 2.5625 C-13.8225 2.5625 -12.8325 2.5625 -11.8125 2.5625 C-11.8125 1.9025 -11.8125 1.2425 -11.8125 0.5625 C-7.71524731 -0.47917441 -4.19754776 -0.38159525 0 0 Z " fill="#151515" transform="translate(154.8125,351.4375)"/>
<path d="M0 0 C0.66 0 1.32 0 2 0 C2 51.81 2 103.62 2 157 C-10.21 157 -22.42 157 -35 157 C-35 117.73 -35 78.46 -35 38 C-34.34 38 -33.68 38 -33 38 C-31.875 43.75 -31.875 43.75 -33 46 C-33.08783655 48.592831 -33.11529222 51.15833408 -33.09765625 53.75097656 C-33.09619598 54.55117722 -33.09473572 55.35137787 -33.0932312 56.17582703 C-33.08942017 57.91700097 -33.08329833 59.65817102 -33.07516479 61.39933014 C-33.0624255 64.15675123 -33.05589126 66.91412433 -33.05102539 69.67156982 C-33.03763607 76.52405257 -33.01349185 83.37649005 -32.98962402 90.22894287 C-32.96987555 96.01179499 -32.9542382 101.7946299 -32.94406128 107.57750702 C-32.93758938 110.29065523 -32.92507794 113.00373287 -32.91235352 115.71685791 C-32.90871909 117.38838642 -32.9053676 119.05991558 -32.90234375 120.73144531 C-32.89459427 121.85854164 -32.89459427 121.85854164 -32.88668823 123.00840759 C-32.88627699 127.11367962 -33.19901504 130.97280362 -34 135 C-33.34 135 -32.68 135 -32 135 C-31.67 140.94 -31.34 146.88 -31 153 C-16.39134886 153.29221801 -16.39134886 153.29221801 -2 151 C-0.21814593 149.21814593 -0.85585432 146.59561799 -0.84178162 144.18516541 C-0.82709839 142.28991875 -0.82709839 142.28991875 -0.81211853 140.35638428 C-0.80621357 138.94323768 -0.80040317 137.53009069 -0.79467773 136.11694336 C-0.78510463 134.63897931 -0.77509489 133.16101804 -0.76467896 131.68305969 C-0.73756228 127.65847154 -0.71658947 123.63387158 -0.69667697 119.6092422 C-0.67485897 115.40781277 -0.64744987 111.20642002 -0.62062073 107.00502014 C-0.57063705 99.04356403 -0.52571935 91.08208762 -0.48259836 83.1205917 C-0.43327438 74.05904807 -0.37833837 64.99754122 -0.32291877 55.93603313 C-0.20901164 37.29072288 -0.10219171 18.64537795 0 0 Z " fill="#DEFDFE" transform="translate(291,96)"/>
<path d="M0 0 C71.94 0 143.88 0 218 0 C214.64964163 3.35035837 213.59472216 3.35089196 209.06405574 3.38724393 C208.24791323 3.3785054 207.43177071 3.36976688 206.59089661 3.36076355 C205.72262023 3.36332682 204.85434386 3.3658901 203.95975608 3.36853105 C201.0391462 3.37348756 198.11904889 3.35694527 195.19848633 3.34057617 C193.10940056 3.3397303 191.02031389 3.34020425 188.93122864 3.34190369 C183.24969166 3.34276663 177.56834357 3.3250924 171.8868506 3.30418181 C165.95311575 3.28546487 160.01937688 3.28366851 154.08561707 3.28010559 C142.84464706 3.27077046 131.60376427 3.2461368 120.36283273 3.21605712 C107.56737194 3.18255878 94.77190706 3.16603859 81.97641337 3.15097082 C55.65089383 3.11958854 29.3254518 3.06679952 3 3 C3 2.34 3 1.68 3 1 C2.01 0.67 1.02 0.34 0 0 Z " fill="#E3FEFE" transform="translate(128,312)"/>
<path d="M0 0 C0.66 0 1.32 0 2 0 C2 19.8 2 39.6 2 60 C-25.39 60 -52.78 60 -81 60 C-81 98.28 -81 136.56 -81 176 C-81.33 176 -81.66 176 -82 176 C-82.92511653 169.73306583 -83.14264349 163.64667837 -83.12939453 157.31713867 C-83.13114685 156.27715729 -83.13289917 155.2371759 -83.13470459 154.16567993 C-83.13908367 150.74975892 -83.13620011 147.33389023 -83.1328125 143.91796875 C-83.13348642 141.53762299 -83.13445718 139.15727729 -83.13571167 136.77693176 C-83.13718308 131.79993023 -83.13505102 126.8229467 -83.13037109 121.84594727 C-83.12465861 115.45898358 -83.12796593 109.07206177 -83.13394356 102.6850996 C-83.13755097 97.77559593 -83.13641002 92.86610225 -83.13381577 87.95659828 C-83.1331478 85.60060941 -83.13397038 83.24461964 -83.13629532 80.88863182 C-83.13882644 77.60435948 -83.13497538 74.32015587 -83.12939453 71.03588867 C-83.13141876 70.05871384 -83.13344299 69.081539 -83.13552856 68.07475281 C-83.13270874 67.18187561 -83.12988892 66.28899841 -83.12698364 65.36906433 C-83.12660662 64.59316546 -83.12622959 63.8172666 -83.12584114 63.01785564 C-83 61 -83 61 -82 58 C-80.35 58 -78.7 58 -77 58 C-77 57.34 -77 56.68 -77 56 C-66.77 56 -56.54 56 -46 56 C-46 56.66 -46 57.32 -46 58 C-45.278125 57.62875 -44.55625 57.2575 -43.8125 56.875 C-41 56 -41 56 -38.84692383 56.91943359 C-35.11994055 58.33403165 -31.57043442 58.35440361 -27.63671875 58.4140625 C-26.84473587 58.43342865 -26.05275299 58.4527948 -25.23677063 58.4727478 C-22.72045481 58.53227232 -20.20409256 58.57881958 -17.6875 58.625 C-15.9758921 58.66320481 -14.26430291 58.70225799 -12.55273438 58.7421875 C-8.36864251 58.8379513 -4.18446069 58.9220818 0 59 C-0.07359238 58.4138089 -0.14718475 57.8276178 -0.2230072 57.22366333 C-0.98582814 50.54148443 -1.05690434 44.02167027 -0.87890625 37.3046875 C-0.84348976 35.69450241 -0.84348976 35.69450241 -0.80735779 34.05178833 C-0.73144265 30.65936618 -0.64711253 27.26721522 -0.5625 23.875 C-0.50920689 21.55990863 -0.45646714 19.24480445 -0.40429688 16.9296875 C-0.27592657 11.2862945 -0.14066686 5.64309918 0 0 Z " fill="#000D22" transform="translate(208,135)"/>
<path d="M0 0 C0.33 0 0.66 0 1 0 C1 32.67 1 65.34 1 99 C1.66 99 2.32 99 3 99 C2.67 100.32 2.34 101.64 2 103 C3.485 102.505 3.485 102.505 5 102 C7.60274953 101.9021549 10.17864612 101.86092602 12.78149414 101.86628723 C13.58231698 101.86402167 14.38313982 101.86175612 15.20823002 101.85942191 C17.90055329 101.85307495 20.59282631 101.85391171 23.28515625 101.85473633 C25.21174179 101.85174532 27.13832674 101.84834292 29.06491089 101.84455872 C34.30444019 101.83570973 39.54395317 101.83338026 44.78348923 101.83274293 C49.15256581 101.83179466 53.52163857 101.8281174 57.89071369 101.82457083 C68.19439703 101.81642325 78.49807162 101.81398692 88.80175781 101.81469727 C99.4439594 101.8152985 110.08611037 101.80473831 120.72829914 101.7889536 C129.8552973 101.77589679 138.98227887 101.77051257 148.10928631 101.77115268 C153.56491054 101.77140816 159.02048978 101.76852893 164.47610474 101.75797462 C169.60438964 101.74832459 174.73258624 101.74819309 179.86087418 101.75549126 C181.74630995 101.75654089 183.63175113 101.75415193 185.51717758 101.7481308 C188.0843923 101.74046132 190.65129823 101.74502192 193.21850586 101.75276184 C193.97034684 101.74761828 194.72218782 101.74247471 195.49681187 101.73717529 C199.21925098 101.76209816 200.81812481 101.87874988 204 104 C177.54935964 104.02332569 151.09872081 104.04097755 124.64807224 104.05181217 C112.36751017 104.05697583 100.08695447 104.06401986 87.80639648 104.07543945 C77.10685708 104.08538416 66.40732229 104.09185292 55.70777839 104.09408849 C50.03868058 104.09539597 44.36959599 104.09848411 38.7005024 104.10573006 C33.37119688 104.11248691 28.0419101 104.11461765 22.71260071 104.11310768 C20.75053747 104.11338416 18.78847365 104.11539126 16.82641411 104.11920547 C14.15989244 104.12413749 11.49344269 104.12300012 8.82691956 104.12025452 C7.64649506 104.12462378 7.64649506 104.12462378 6.44222361 104.12908131 C1.11412121 104.11412121 1.11412121 104.11412121 0 103 C-0.09527037 101.65927183 -0.1218877 100.31357497 -0.12025452 98.96946716 C-0.12162918 98.10143463 -0.12300385 97.2334021 -0.12442017 96.33906555 C-0.12082489 95.37953476 -0.11722961 94.42000397 -0.11352539 93.43139648 C-0.11367142 92.42663269 -0.11381744 91.4218689 -0.1139679 90.38665771 C-0.1132683 87.04811483 -0.10547374 83.70962695 -0.09765625 80.37109375 C-0.09579224 78.06323782 -0.09436826 75.75538149 -0.09336853 73.44752502 C-0.08954204 67.35982174 -0.07971065 61.27214214 -0.06866455 55.18444824 C-0.05845323 48.97778646 -0.05387151 42.77112087 -0.04882812 36.56445312 C-0.0380885 24.37629165 -0.02101052 12.18814779 0 0 Z " fill="#0E6FAE" transform="translate(132,205)"/>
<path d="M0 0 C0.76364868 0.00100708 1.52729736 0.00201416 2.31408691 0.00305176 C5.16383366 0.00827961 8.01355898 0.02224089 10.86328125 0.03515625 C17.23640625 0.05578125 23.60953125 0.07640625 30.17578125 0.09765625 C30.17578125 13.29765625 30.17578125 26.49765625 30.17578125 40.09765625 C42.71578125 40.09765625 55.25578125 40.09765625 68.17578125 40.09765625 C68.17578125 40.75765625 68.17578125 41.41765625 68.17578125 42.09765625 C63.1587059 42.14726981 58.1417749 42.18347668 53.12451172 42.20751953 C51.41940827 42.21754765 49.71432189 42.23117351 48.00927734 42.24853516 C45.55171483 42.27292428 43.09438064 42.28417137 40.63671875 42.29296875 C39.88023041 42.30329132 39.12374207 42.31361389 38.34432983 42.32424927 C33.89755182 42.32518186 30.30667908 41.74887267 26.17578125 40.09765625 C25.36458936 37.12328597 25.1830792 35.04817863 25.63671875 31.97265625 C26.23635158 27.66225216 26.35961553 23.50403065 26.36328125 19.16015625 C26.38165039 18.02030273 26.38165039 18.02030273 26.40039062 16.85742188 C26.41381928 11.61577113 25.62606923 7.1364038 24.17578125 2.09765625 C20.11898748 2.07288252 16.06222319 2.05476132 12.00537109 2.04272461 C10.62613152 2.03770507 9.24689723 2.03088806 7.86767578 2.0222168 C5.88185942 2.01004705 3.89600376 2.00493992 1.91015625 2 C0.71616211 1.99476318 -0.47783203 1.98952637 -1.70800781 1.98413086 C-5.00675177 1.99662526 -5.00675177 1.99662526 -8.82421875 3.09765625 C-9.15421875 39.39765625 -9.48421875 75.69765625 -9.82421875 113.09765625 C-10.15421875 113.09765625 -10.48421875 113.09765625 -10.82421875 113.09765625 C-11.55530093 109.81912982 -11.94841788 106.79111197 -11.94447327 103.43424988 C-11.94584793 102.52706207 -11.9472226 101.61987427 -11.94863892 100.68519592 C-11.94504364 99.70264328 -11.94144836 98.72009064 -11.93774414 97.70776367 C-11.93796318 96.1412204 -11.93796318 96.1412204 -11.93818665 94.54302979 C-11.93749084 91.09637362 -11.92971393 87.64977171 -11.921875 84.203125 C-11.92000964 81.81130503 -11.91858629 79.41948467 -11.91758728 77.02766418 C-11.91377139 70.73616478 -11.90394899 64.44468851 -11.8928833 58.15319824 C-11.88264926 51.73169264 -11.87808539 45.31018329 -11.87304688 38.88867188 C-11.86232591 26.29165681 -11.84545315 13.69465776 -11.82421875 1.09765625 C-7.87679178 -0.21815274 -4.11334826 -0.02545414 0 0 Z " fill="#206692" transform="translate(140.82421875,195.90234375)"/>
<path d="M0 0 C3 4 3 4 2.625 7.6875 C2.41875 8.780625 2.2125 9.87375 2 11 C2.33 11.33 2.66 11.66 3 12 C3.09793744 13.36549877 3.12798073 14.73597476 3.12939453 16.10498047 C3.13412277 17.41171219 3.13412277 17.41171219 3.13894653 18.74484253 C3.1369223 19.69271637 3.13489807 20.64059021 3.1328125 21.6171875 C3.13376923 22.58528351 3.13472595 23.55337952 3.13571167 24.55081177 C3.13639371 26.60369939 3.13453776 28.65658915 3.13037109 30.70947266 C3.12503471 33.85454156 3.13030931 36.99946689 3.13671875 40.14453125 C3.13605775 42.13541698 3.13477612 44.12630263 3.1328125 46.1171875 C3.13483673 47.06101288 3.13686096 48.00483826 3.13894653 48.9772644 C3.13579437 49.85472321 3.13264221 50.73218201 3.12939453 51.63623047 C3.12820114 52.79419632 3.12820114 52.79419632 3.12698364 53.97555542 C3 56 3 56 2 59 C2.32550502 60.66821323 2.65846063 62.33499557 3 64 C2.505 64.99 2.505 64.99 2 66 C1.90468747 67.7342166 1.87369609 69.47212018 1.87301636 71.20895386 C1.87019653 72.31344376 1.86737671 73.41793365 1.86447144 74.55589294 C1.86649567 75.77349808 1.8685199 76.99110321 1.87060547 78.24560547 C1.86885315 79.52384689 1.86710083 80.80208832 1.86529541 82.11906433 C1.86072409 85.63411192 1.86251061 89.14913025 1.8656745 92.66417837 C1.86820506 96.34880242 1.86585811 100.03342395 1.86428833 103.7180481 C1.86246639 109.91717986 1.8648712 116.11629973 1.86962891 122.31542969 C1.8750476 129.45774259 1.87332648 136.60002684 1.8678025 143.74233902 C1.86324332 149.88519371 1.8626352 156.02803985 1.86524117 162.1708957 C1.86679167 165.83437259 1.86703212 169.4978361 1.86370468 173.1613121 C1.86024186 177.26104126 1.86506123 181.36072234 1.87060547 185.46044922 C1.86756912 187.25649345 1.86756912 187.25649345 1.86447144 189.08882141 C1.88070291 195.60880361 2.17617266 202.00060525 2.87735176 208.48478889 C3.03268549 211.6702983 2.35655767 214.12728965 1 217 C0.67 217 0.34 217 0 217 C0 145.39 0 73.78 0 0 Z " fill="#0B6DAA" transform="translate(297,36)"/>
<path d="M0 0 C0.33 0 0.66 0 1 0 C1 2.97 1 5.94 1 9 C2.65 9 4.3 9 6 9 C6 15.6 6 22.2 6 29 C5.01 28.67 4.02 28.34 3 28 C0.85744207 28.38932856 0.85744207 28.38932856 -1 29 C-1 27.68 -1 26.36 -1 25 C-2.32 25 -3.64 25 -5 25 C-5 24.34 -5 23.68 -5 23 C-9.62 23 -14.24 23 -19 23 C-19 22.34 -19 21.68 -19 21 C-19.66 21 -20.32 21 -21 21 C-22.125 14.375 -22.125 14.375 -21 11 C-19.68 11 -18.36 11 -17 11 C-17 10.34 -17 9.68 -17 9 C-15.68 9 -14.36 9 -13 9 C-13 9.66 -13 10.32 -13 11 C-12.01 11 -11.02 11 -10 11 C-10 11.66 -10 12.32 -10 13 C-8.68 13 -7.36 13 -6 13 C-5.67 11.68 -5.34 10.36 -5 9 C-3.68 9 -2.36 9 -1 9 C-0.67 6.03 -0.34 3.06 0 0 Z " fill="#F0F0F0" transform="translate(167,352)"/>
<path d="M0 0 C5.49925421 -0.04940929 10.99837942 -0.08572395 16.49780273 -0.10986328 C18.36891938 -0.11992567 20.24002028 -0.13357691 22.11108398 -0.15087891 C24.79935591 -0.17511684 27.48742006 -0.18648063 30.17578125 -0.1953125 C31.01337479 -0.20563507 31.85096832 -0.21595764 32.71394348 -0.22659302 C38.65838488 -0.22774341 38.65838488 -0.22774341 42 2 C42 2.66 42 3.32 42 4 C43.32 4 44.64 4 46 4 C49.48769554 8.67037431 51.42444255 12.41840104 50.66517639 18.3054657 C50.04803221 24.56977081 49.87249655 30.7602911 49.84178162 37.05427551 C49.83641203 38.0931102 49.83104244 39.13194489 49.82551014 40.20225942 C49.81159983 43.60985312 49.8031124 47.01743751 49.79467773 50.42504883 C49.7850857 52.88999084 49.77507487 55.35493125 49.76467896 57.81987 C49.74332585 63.10439834 49.72485451 68.38892442 49.70907402 73.67347145 C49.68625367 81.31381238 49.65812854 88.95412674 49.62875474 96.59444495 C49.58122684 108.99369695 49.53792312 121.39295988 49.49731445 133.79223633 C49.45788382 145.82902883 49.41643977 157.86581165 49.37231445 169.90258789 C49.36959018 170.64592138 49.36686591 171.38925487 49.36405908 172.15511362 C49.35037836 175.8846133 49.33665833 179.61411284 49.32291877 183.34361231 C49.20918686 214.22905483 49.10239767 245.11451772 49 276 C48.67 276 48.34 276 48 276 C48 188.55 48 101.1 48 11 C47.01 11 46.02 11 45 11 C45 10.34 45 9.68 45 9 C44.01 8.67 43.02 8.34 42 8 C41.505 6.515 41.505 6.515 41 5 C40.01 4.34 39.02 3.68 38 3 C38 2.34 38 1.68 38 1 C25.46 1 12.92 1 0 1 C0 0.67 0 0.34 0 0 Z " fill="#196CA0" transform="translate(295,28)"/>
<path d="M0 0 C14.19 0 28.38 0 43 0 C43.90793538 4.5396769 44.21556735 8.7676829 44.31640625 13.36328125 C44.33718735 14.15526413 44.35796844 14.94724701 44.37937927 15.76322937 C44.44447804 18.27956928 44.50357423 20.79600872 44.5625 23.3125 C44.605723 25.02409861 44.64933848 26.73568735 44.69335938 28.44726562 C44.80011847 32.63140984 44.90149635 36.81565362 45 41 C44.01 41 43.02 41 42 41 C41.67 41.99 41.34 42.98 41 44 C37.91642369 45.54178816 34.67190912 45.14203232 31.2890625 45.1328125 C30.52451752 45.13376923 29.75997253 45.13472595 28.97225952 45.13571167 C27.3532503 45.1363927 25.73423836 45.13454378 24.11523438 45.13037109 C21.64186422 45.12503637 19.16867688 45.13031107 16.6953125 45.13671875 C15.12239543 45.13605767 13.54947848 45.13477588 11.9765625 45.1328125 C10.86856796 45.13584885 10.86856796 45.13584885 9.7381897 45.13894653 C6.35311987 45.12357079 3.23569246 45.05962352 0 44 C0 43.34 0 42.68 0 42 C18.81 42.495 18.81 42.495 38 43 C38 42.34 38 41.68 38 41 C25.46 41 12.92 41 0 41 C0 40.67 0 40.34 0 40 C12.87 40 25.74 40 39 40 C39 27.13 39 14.26 39 1 C26.13 1 13.26 1 0 1 C0 0.67 0 0.34 0 0 Z " fill="#3A7FA8" transform="translate(171,195)"/>
<path d="M0 0 C3.3 0 6.6 0 10 0 C10 10.56 10 21.12 10 32 C6.7 32 3.4 32 0 32 C0 21.44 0 10.88 0 0 Z " fill="#020202" transform="translate(267,353)"/>
<path d="M0 0 C14.52 0 29.04 0 44 0 C43.34 1.32 42.68 2.64 42 4 C41.505 2.515 41.505 2.515 41 1 C36.81891433 1.11869627 32.63804212 1.24297273 28.45727539 1.37231445 C27.03642225 1.41549804 25.61552274 1.45718408 24.19458008 1.49731445 C22.1465053 1.55542095 20.09866035 1.61899638 18.05078125 1.68359375 C16.82012939 1.72025146 15.58947754 1.75690918 14.3215332 1.79467773 C11.44173016 1.97269423 8.80412912 2.34609105 6 3 C6 3.66 6 4.32 6 5 C5.01 5 4.02 5 3 5 C3 36.02 3 67.04 3 99 C2.67 99 2.34 99 2 99 C2 86.13 2 73.26 2 60 C1.34 60 0.68 60 0 60 C0 40.2 0 20.4 0 0 Z " fill="#215B85" transform="translate(210,135)"/>
<path d="M0 0 C14.52 0 29.04 0 44 0 C44 0.33 44 0.66 44 1 C23.21 1.495 23.21 1.495 2 2 C2 39.62 2 77.24 2 116 C1.34 116 0.68 116 0 116 C0 77.72 0 39.44 0 0 Z " fill="#1A4565" transform="translate(127,195)"/>
<path d="M0 0 C12.87 0 25.74 0 39 0 C39 12.87 39 25.74 39 39 C26.13 39 13.26 39 0 39 C0 26.13 0 13.26 0 0 Z M2 1 C1.95055934 5.64475959 1.91426137 10.28936596 1.89013672 14.93432617 C1.88007959 16.51443144 1.86643215 18.0945181 1.84912109 19.67456055 C1.82485978 21.9458475 1.81351418 24.21688836 1.8046875 26.48828125 C1.79436493 27.19463211 1.78404236 27.90098297 1.77340698 28.6287384 C1.77256225 32.32197792 1.89279477 33.83919216 4 37 C10.42068131 38.78352259 17.81164577 38.10554703 24.4375 37.9375 C25.21867187 37.9365332 25.99984375 37.93556641 26.8046875 37.93457031 C30.70663262 37.77058042 32.47643186 37.4576068 35.48046875 34.83203125 C38.35336358 29.44243874 37.76710524 22.68421179 37.875 16.75 C37.92140625 15.45835937 37.9678125 14.16671875 38.015625 12.8359375 C38.17402124 7.91432617 38.17402124 7.91432617 38 3 C36.07483545 0.63640567 36.07483545 0.63640567 32.65185547 0.77294922 C31.22359367 0.77326625 29.79530788 0.78458639 28.3671875 0.8046875 C27.61535187 0.8075174 26.86351624 0.81034729 26.08889771 0.81326294 C23.68410422 0.82447126 21.27968119 0.84957648 18.875 0.875 C17.24609912 0.88502898 15.61719242 0.89415497 13.98828125 0.90234375 C9.99204444 0.92441265 5.99608506 0.95894649 2 1 Z " fill="#CEEFF3" transform="translate(171,196)"/>
<path d="M0 0 C0 37.62 0 75.24 0 114 C-0.99 114.495 -0.99 114.495 -2 115 C-2.8480538 108.4039881 -3.13869084 101.98549803 -3.11352539 95.33959961 C-3.11367142 94.31416046 -3.11381744 93.28872131 -3.1139679 92.23220825 C-3.11327609 88.87223124 -3.10551819 85.51231097 -3.09765625 82.15234375 C-3.09578947 79.81108124 -3.09436679 77.46981834 -3.09336853 75.1285553 C-3.08956384 68.98836169 -3.07975116 62.84819201 -3.06866455 56.70800781 C-3.05840627 50.43359704 -3.05386147 44.15918238 -3.04882812 37.88476562 C-3.03812695 25.58983328 -3.02107528 13.29491864 -3 1 C-1 0 -1 0 0 0 Z " fill="#0C6EAE" transform="translate(252,138)"/>
<path d="M0 0 C7.42857143 -0.28571429 7.42857143 -0.28571429 11 2 C9.68 2 8.36 2 7 2 C7.33 2.99 7.66 3.98 8 5 C9.65 5 11.3 5 13 5 C13.33 6.65 13.66 8.3 14 10 C13.34 10 12.68 10 12 10 C11.67 11.32 11.34 12.64 11 14 C8.03 14 5.06 14 2 14 C2 13.34 2 12.68 2 12 C0.02463255 12.34786708 0.02463255 12.34786708 -2 13 C-2.33 13.66 -2.66 14.32 -3 15 C-4.97888961 15.72693904 -6.97954558 16.39816251 -9 17 C-9.19573608 15.56359829 -9.38127816 14.12580496 -9.5625 12.6875 C-9.66691406 11.88699219 -9.77132812 11.08648437 -9.87890625 10.26171875 C-10 8 -10 8 -9 5 C-8.34 5 -7.68 5 -7 5 C-7 4.34 -7 3.68 -7 3 C-3.535 2.505 -3.535 2.505 0 2 C0 1.34 0 0.68 0 0 Z " fill="#121212" transform="translate(106,365)"/>
<path d="M0 0 C0.99 0.33 1.98 0.66 3 1 C2.67 1.99 2.34 2.98 2 4 C1.91057552 5.57350692 1.87802679 7.15056328 1.87974548 8.72660828 C1.87837082 9.69835999 1.87699615 10.67011169 1.87557983 11.67131042 C1.87917511 12.73585953 1.88277039 13.80040863 1.88647461 14.8972168 C1.88632858 16.01931549 1.88618256 17.14141418 1.8860321 18.29751587 C1.88673002 22.01476968 1.89451683 25.73197367 1.90234375 29.44921875 C1.90420836 32.0232592 1.90563206 34.59730001 1.90663147 37.17134094 C1.91006243 43.25925528 1.91794782 49.34714899 1.92798096 55.43505555 C1.93915579 62.36606694 1.944656 69.29707917 1.94967639 76.22809732 C1.96013079 90.48540785 1.9777217 104.74270329 2 119 C0.68 119 -0.64 119 -2 119 C-1.98747192 117.72816864 -1.97494385 116.45633728 -1.96203613 115.14596558 C-1.84359145 103.11252461 -1.72587227 91.07907674 -1.60884857 79.04562187 C-1.54867451 72.86032635 -1.48825206 66.67503347 -1.42724609 60.48974609 C-1.36829232 54.51157317 -1.31001173 48.53339401 -1.25218201 42.55521011 C-1.2300931 40.28366999 -1.20776877 38.01213214 -1.18519592 35.74059677 C-1.15342401 32.53914719 -1.12250017 29.33769046 -1.09179688 26.13623047 C-1.08187965 25.14963881 -1.07196243 24.16304714 -1.06174469 23.14655876 C-0.99974476 16.53367248 -1.00607876 9.92511368 -1.08996582 3.31228638 C-1 1 -1 1 0 0 Z " fill="#000613" transform="translate(124,192)"/>
<path d="M0 0 C0.99 0 1.98 0 3 0 C2.67 1.98 2.34 3.96 2 6 C4.32357511 6.18490007 4.32357511 6.18490007 7 4 C7 4.99 7 5.98 7 7 C6.34 7 5.68 7 5 7 C5 12.28 5 17.56 5 23 C5.66 23 6.32 23 7 23 C7 23.99 7 24.98 7 26 C7.66 26 8.32 26 9 26 C8.67 26.66 8.34 27.32 8 28 C7.34 28 6.68 28 6 28 C5.67 28.66 5.34 29.32 5 30 C3.35 29.67 1.7 29.34 0 29 C-0.66 30.32 -1.32 31.64 -2 33 C-2.66 32.67 -3.32 32.34 -4 32 C-4 31.34 -4 30.68 -4 30 C-3.34 30 -2.68 30 -2 30 C-2 29.34 -2 28.68 -2 28 C-1.34 28 -0.68 28 0 28 C0 23.38 0 18.76 0 14 C-1.32 14 -2.64 14 -4 14 C-4 13.34 -4 12.68 -4 12 C-6.97 11.67 -9.94 11.34 -13 11 C-13 10.34 -13 9.68 -13 9 C-13.99 9 -14.98 9 -16 9 C-16 7.68 -16 6.36 -16 5 C-13.69 5 -11.38 5 -9 5 C-9 5.66 -9 6.32 -9 7 C-8.01 7 -7.02 7 -6 7 C-6 7.66 -6 8.32 -6 9 C-4.68 9 -3.36 9 -2 9 C-1.855625 8.071875 -1.71125 7.14375 -1.5625 6.1875 C-1 3 -1 3 0 0 Z " fill="#DEDEDE" transform="translate(311,354)"/>
<path d="M0 0 C6.93 0 13.86 0 21 0 C21.66 1.98 22.32 3.96 23 6 C25.97 6.495 25.97 6.495 29 7 C28.67 5.35 28.34 3.7 28 2 C32.62 2 37.24 2 42 2 C42 2.66 42 3.32 42 4 C42.66 4 43.32 4 44 4 C44 4.99 44 5.98 44 7 C38.555 6.505 38.555 6.505 33 6 C33 6.66 33 7.32 33 8 C30.69 8.33 28.38 8.66 26 9 C26 9.66 26 10.32 26 11 C25.34 11 24.68 11 24 11 C24 14.63 24 18.26 24 22 C23.34 21.67 22.68 21.34 22 21 C22 19.02 22 17.04 22 15 C19.27498092 14.09166031 17.37766029 13.81640015 14.55078125 13.68359375 C13.70322266 13.64169922 12.85566406 13.59980469 11.98242188 13.55664062 C11.10134766 13.51732422 10.22027344 13.47800781 9.3125 13.4375 C8.41982422 13.39431641 7.52714844 13.35113281 6.60742188 13.30664062 C4.40512656 13.2006478 2.20258338 13.09982779 0 13 C0 17.62 0 22.24 0 27 C-0.33 27 -0.66 27 -1 27 C-1 21.72 -1 16.44 -1 11 C5.6 11 12.2 11 19 11 C19 7.7 19 4.4 19 1 C12.73 1 6.46 1 0 1 C0 0.67 0 0.34 0 0 Z " fill="#BFBFBF" transform="translate(73,359)"/>
<path d="M0 0 C0.495 1.485 0.495 1.485 1 3 C1.66 3 2.32 3 3 3 C3 3.99 3 4.98 3 6 C-25.711805 6.17950056 -54.41593003 5.85898465 -83.125 5.5 C-84.08154606 5.48804218 -85.03809212 5.47608437 -86.02362442 5.46376419 C-98.01580577 5.31345197 -110.00792708 5.1587188 -122 5 C-119.50682554 2.50682554 -118.05907848 2.76880693 -114.65841675 2.76226807 C-113.91455719 2.77102966 -113.17069763 2.77979126 -112.40429688 2.78881836 C-111.62027496 2.7901326 -110.83625305 2.79144684 -110.0284729 2.7928009 C-107.42511118 2.79931368 -104.82203945 2.81976899 -102.21875 2.83984375 C-100.40710773 2.84611543 -98.59546162 2.8513551 -96.78381348 2.85560608 C-92.00030293 2.86893791 -87.21691894 2.89336534 -82.43347168 2.92095947 C-74.80562567 2.96396947 -67.17774991 2.99394521 -59.54981995 3.0170002 C-56.89445035 3.02714996 -54.2391903 3.0442182 -51.5838623 3.06199646 C-44.31849898 3.09791868 -37.16812354 3.10698451 -29.94366455 2.22386169 C-27.25851822 1.91459979 -24.61396244 1.92036533 -21.9140625 1.97265625 C-20.88152344 1.98490234 -19.84898437 1.99714844 -18.78515625 2.00976562 C-16.65488638 2.04531401 -14.52467378 2.0844533 -12.39453125 2.12695312 C-10.85732422 2.14338867 -10.85732422 2.14338867 -9.2890625 2.16015625 C-7.90775146 2.18541382 -7.90775146 2.18541382 -6.49853516 2.21118164 C-3.86304519 1.98842428 -2.25751974 1.338731 0 0 Z " fill="#DAEFF5" transform="translate(251,128)"/>
<path d="M0 0 C0.66 0 1.32 0 2 0 C2 19.8 2 39.6 2 60 C-25.39 60 -52.78 60 -81 60 C-81 59.67 -81 59.34 -81 59 C-54.27 59 -27.54 59 0 59 C-0.33 55.7 -0.66 52.4 -1 49 C-1.05043403 47.12289651 -1.06595715 45.24395917 -1.02172852 43.36669922 C-1.00163223 42.38643768 -0.98153595 41.40617615 -0.96083069 40.39620972 C-0.93379562 39.37600739 -0.90676056 38.35580505 -0.87890625 37.3046875 C-0.84348976 35.69450241 -0.84348976 35.69450241 -0.80735779 34.05178833 C-0.73144265 30.65936618 -0.64711253 27.26721522 -0.5625 23.875 C-0.50920689 21.55990863 -0.45646714 19.24480445 -0.40429688 16.9296875 C-0.27592657 11.2862945 -0.14066686 5.64309918 0 0 Z " fill="#081629" transform="translate(208,135)"/>
<path d="M0 0 C0.33 0 0.66 0 1 0 C1.33 3.3 1.66 6.6 2 10 C2.66 10 3.32 10 4 10 C4.99 14.62 5.98 19.24 7 24 C5.02 24 3.04 24 1 24 C-1 21 -1 21 -1 17 C-8.26 17 -15.52 17 -23 17 C-23 15.35 -23 13.7 -23 12 C-15.41 12 -7.82 12 0 12 C0 8.04 0 4.08 0 0 Z " fill="#F3F3F3" transform="translate(95,342)"/>
<path d="M0 0 C0.66 0 1.32 0 2 0 C2 21.78 2 43.56 2 66 C0.68 65.67 -0.64 65.34 -2 65 C-1.89240686 57.11558335 -1.779755 49.23126208 -1.66066074 41.34701157 C-1.60551798 37.68596092 -1.55211201 34.02490217 -1.50268555 30.36376953 C-1.45491418 26.82998084 -1.40256713 23.29628673 -1.34705925 19.76261139 C-1.31678829 17.75965338 -1.29124507 15.75662573 -1.26576233 13.75360107 C-1.2358445 11.92215546 -1.2358445 11.92215546 -1.20532227 10.05371094 C-1.18977798 8.97893494 -1.1742337 7.90415894 -1.15821838 6.79681396 C-1.02101505 4.37148144 -0.69605145 2.31695943 0 0 Z " fill="#00091C" transform="translate(291,29)"/>
<path d="M0 0 C0.98820992 0.00424484 0.98820992 0.00424484 1.99638367 0.00857544 C4.08501937 0.01970326 6.17321431 0.04479302 8.26171875 0.0703125 C9.68423857 0.08035191 11.10676515 0.08947608 12.52929688 0.09765625 C16.00274556 0.11961803 19.47593908 0.15409604 22.94921875 0.1953125 C22.94921875 0.8553125 22.94921875 1.5153125 22.94921875 2.1953125 C17.56368367 3.32251752 17.56368367 3.32251752 14.72265625 2.734375 C11.20427715 2.05052103 7.84420356 2.0253565 4.26171875 2.0078125 C3.58560547 1.99556641 2.90949219 1.98332031 2.21289062 1.97070312 C0.45674448 1.9654609 -1.29889247 2.07299127 -3.05078125 2.1953125 C-3.71078125 2.8553125 -4.37078125 3.5153125 -5.05078125 4.1953125 C-7.03899438 4.59295513 -9.04022464 4.93306599 -11.05078125 5.1953125 C-12.00265478 8.0509331 -12.17728898 9.82521255 -12.18017578 12.78686523 C-12.18332794 13.71470322 -12.1864801 14.6425412 -12.18972778 15.59849548 C-12.18770355 16.59853104 -12.18567932 17.59856659 -12.18359375 18.62890625 C-12.18502884 20.17313011 -12.18502884 20.17313011 -12.18649292 21.74855042 C-12.18717364 23.92652447 -12.18532685 26.10450055 -12.18115234 28.2824707 C-12.17580805 31.61609461 -12.18109819 34.94958345 -12.1875 38.28320312 C-12.18683909 40.3984378 -12.18555767 42.51367239 -12.18359375 44.62890625 C-12.18561798 45.62691757 -12.18764221 46.62492889 -12.18972778 47.65318298 C-12.18657562 48.58417313 -12.18342346 49.51516327 -12.18017578 50.47436523 C-12.17938019 51.29138412 -12.17858459 52.10840302 -12.17776489 52.95018005 C-12.12835014 55.21087227 -12.12835014 55.21087227 -11.45285034 57.3809967 C-11.32016754 57.97972092 -11.18748474 58.57844513 -11.05078125 59.1953125 C-12.48828125 60.9453125 -12.48828125 60.9453125 -14.05078125 62.1953125 C-15.07690723 59.11693456 -15.17168344 57.02956954 -15.16430664 53.8059082 C-15.16423111 52.70499344 -15.16415558 51.60407867 -15.16407776 50.46980286 C-15.15891647 49.28222885 -15.15375519 48.09465485 -15.1484375 46.87109375 C-15.14702255 45.65455612 -15.1456076 44.43801849 -15.14414978 43.18461609 C-15.13854437 39.2923234 -15.12599092 35.40008786 -15.11328125 31.5078125 C-15.10826695 28.87174562 -15.10370392 26.23567784 -15.09960938 23.59960938 C-15.08857318 17.13149086 -15.07182975 10.66340576 -15.05078125 4.1953125 C-14.06078125 4.1953125 -13.07078125 4.1953125 -12.05078125 4.1953125 C-12.05078125 3.5353125 -12.05078125 2.8753125 -12.05078125 2.1953125 C-7.90708344 0.20771305 -4.571711 -0.03890818 0 0 Z " fill="#136DA9" transform="translate(228.05078125,135.8046875)"/>
<path d="M0 0 C14.52 0 29.04 0 44 0 C44 0.66 44 1.32 44 2 C40.36728911 4.42180726 38.87193943 4.18050218 34.5625 4.0625 C27.30151142 3.91529938 20.11975306 4.26709517 12.87915039 4.82055664 C8.08730545 5.12623588 4.52026623 4.91946475 0 3 C0 2.01 0 1.02 0 0 Z " fill="#1E7099" transform="translate(252,253)"/>
<path d="M0 0 C1.37478516 0.00483398 1.37478516 0.00483398 2.77734375 0.00976562 C3.72738281 0.01814453 4.67742187 0.02652344 5.65625 0.03515625 C6.60628906 0.03966797 7.55632812 0.04417969 8.53515625 0.04882812 C10.3027471 0.05752935 12.07032991 0.06828776 13.83789062 0.08178711 C15.94396772 0.09620318 18.05012357 0.09765625 20.15625 0.09765625 C33.23317308 1.63611779 33.23317308 1.63611779 38.15625 4.09765625 C38.88700648 6.41171845 39.55763258 8.74594494 40.15625 11.09765625 C40.81625 11.09765625 41.47625 11.09765625 42.15625 11.09765625 C41.82625 12.74765625 41.49625 14.39765625 41.15625 16.09765625 C40.90875 15.52015625 40.66125 14.94265625 40.40625 14.34765625 C39.2243888 11.96498738 39.2243888 11.96498738 37.03125 10.03515625 C35.15625 8.09765625 35.15625 8.09765625 35.15625 5.09765625 C32.18625 5.09765625 29.21625 5.09765625 26.15625 5.09765625 C26.15625 4.43765625 26.15625 3.77765625 26.15625 3.09765625 C14.27625 3.09765625 2.39625 3.09765625 -9.84375 3.09765625 C-8.84375 1.09765625 -8.84375 1.09765625 -7.08398438 0.47875977 C-4.67584171 0.06909208 -2.44256588 -0.01534868 0 0 Z " fill="#E5FCFD" transform="translate(305.84375,22.90234375)"/>
<path d="M0 0 C11.55 0 23.1 0 35 0 C35 3.96 35 7.92 35 12 C27.41 12 19.82 12 12 12 C12 11.34 12 10.68 12 10 C18.6 10 25.2 10 32 10 C32 7.36 32 4.72 32 2 C21.44 2 10.88 2 0 2 C0 1.34 0 0.68 0 0 Z " fill="#424242" transform="translate(60,342)"/>
<path d="M0 0 C2 2 2 2 2.24291992 4.85742188 C2.23881104 6.04916016 2.23470215 7.24089844 2.23046875 8.46875 C2.22853516 9.76167969 2.22660156 11.05460938 2.22460938 12.38671875 C2.21840576 13.06138184 2.21220215 13.73604492 2.20581055 14.43115234 C2.18757091 16.49198782 2.18530077 18.55237353 2.18554688 20.61328125 C2.14020451 30.71959098 2.14020451 30.71959098 1 33 C1.99 33 2.98 33 4 33 C4 33.66 4 34.32 4 35 C16.54 35 29.08 35 42 35 C42 35.66 42 36.32 42 37 C36.98292465 37.04961356 31.96599365 37.08582043 26.94873047 37.10986328 C25.24362702 37.1198914 23.53854064 37.13351726 21.83349609 37.15087891 C19.37593358 37.17526803 16.91859939 37.18651512 14.4609375 37.1953125 C13.70444916 37.20563507 12.94796082 37.21595764 12.16854858 37.22659302 C7.72177057 37.22752561 4.13089783 36.65121642 0 35 C-0.79139661 32.09821242 -1.0086739 30.05435646 -0.53125 27.0625 C0.29394495 21.75488514 0.10573021 16.41972064 0.0625 11.0625 C0.05798828 9.99708984 0.05347656 8.93167969 0.04882812 7.83398438 C0.03711787 5.22259709 0.02071724 2.61132876 0 0 Z " fill="#246B93" transform="translate(167,201)"/>
<path d="M0 0 C1.32 0.33 2.64 0.66 4 1 C4 6.61 4 12.22 4 18 C3.34 18.33 2.68 18.66 2 19 C2.66 20.32 3.32 21.64 4 23 C2.68 22.67 1.36 22.34 0 22 C0 21.34 0 20.68 0 20 C-0.66 20 -1.32 20 -2 20 C-2 19.34 -2 18.68 -2 18 C-3.65 18 -5.3 18 -7 18 C-7 18.66 -7 19.32 -7 20 C-9.97 20 -12.94 20 -16 20 C-16 19.34 -16 18.68 -16 18 C-16.66 18 -17.32 18 -18 18 C-18 17.01 -18 16.02 -18 15 C-11.07 15 -4.14 15 3 15 C2.505 8.565 2.505 8.565 2 2 C1.34 2 0.68 2 0 2 C0 1.34 0 0.68 0 0 Z " fill="#9B9B9B" transform="translate(346,357)"/>
<path d="M0 0 C4.29 0 8.58 0 13 0 C13 2.97 13 5.94 13 9 C8.71 9 4.42 9 0 9 C0 6.03 0 3.06 0 0 Z " fill="#151515" transform="translate(266,340)"/>
<path d="M0 0 C0 0.66 0 1.32 0 2 C1.32 2 2.64 2 4 2 C3.34 4.97 2.68 7.94 2 11 C0.68 11 -0.64 11 -2 11 C-2 10.34 -2 9.68 -2 9 C-2.99 9 -3.98 9 -5 9 C-5 8.34 -5 7.68 -5 7 C-5.99 7 -6.98 7 -8 7 C-7.67 5.35 -7.34 3.7 -7 2 C-7.66 2 -8.32 2 -9 2 C-9 1.34 -9 0.68 -9 0 C-11.97 0.66 -14.94 1.32 -18 2 C-18 1.34 -18 0.68 -18 0 C-12.14072182 -1.67407948 -5.89014391 -1.52003714 0 0 Z " fill="#202020" transform="translate(307,352)"/>
<path d="M0 0 C0 0.66 0 1.32 0 2 C0.66 2 1.32 2 2 2 C1.67 3.65 1.34 5.3 1 7 C-0.32 7 -1.64 7 -3 7 C-3.33 8.32 -3.66 9.64 -4 11 C-4 10.34 -4 9.68 -4 9 C-4.5775 9.350625 -5.155 9.70125 -5.75 10.0625 C-8.35801776 11.14917407 -9.39417629 10.93065133 -12 10 C-12.99435406 6.90645403 -12.87840996 5.09720845 -12 2 C-10.7625 1.67 -9.525 1.34 -8.25 1 C-7.55390625 0.814375 -6.8578125 0.62875 -6.140625 0.4375 C-4 0 -4 0 0 0 Z " fill="#0A0A0A" transform="translate(298,352)"/>
<path d="M0 0 C5.49925421 -0.04940929 10.99837942 -0.08572395 16.49780273 -0.10986328 C18.36891938 -0.11992567 20.24002028 -0.13357691 22.11108398 -0.15087891 C24.79935591 -0.17511684 27.48742006 -0.18648063 30.17578125 -0.1953125 C31.01337479 -0.20563507 31.85096832 -0.21595764 32.71394348 -0.22659302 C38.65838488 -0.22774341 38.65838488 -0.22774341 42 2 C42 2.66 42 3.32 42 4 C43.32 4 44.64 4 46 4 C50.90087528 10.56276379 51.38187846 15.41701034 50.39453125 23.47265625 C50.26433594 24.30667969 50.13414062 25.14070313 50 26 C49.67 26 49.34 26 49 26 C47.96409801 20.94997778 47.89748328 16.12583611 48 11 C47.01 11 46.02 11 45 11 C45 10.34 45 9.68 45 9 C44.01 8.67 43.02 8.34 42 8 C41.505 6.515 41.505 6.515 41 5 C40.01 4.34 39.02 3.68 38 3 C38 2.34 38 1.68 38 1 C25.46 1 12.92 1 0 1 C0 0.67 0 0.34 0 0 Z " fill="#3C81A4" transform="translate(295,28)"/>
<path d="M0 0 C0.66 0 1.32 0 2 0 C2.98531615 2.95594845 3.10413406 4.86120549 3.0625 7.9375 C3.05347656 8.79214844 3.04445312 9.64679688 3.03515625 10.52734375 C3.02355469 11.34332031 3.01195312 12.15929687 3 13 C3 14.32 3 15.64 3 17 C3 23.33333333 3 29.66666667 3 36 C1.51831055 34.96948242 1.51831055 34.96948242 0 33 C-0.26153069 30.41225229 -0.34958438 28.07100347 -0.29296875 25.48828125 C-0.28872391 24.76005661 -0.28447906 24.03183197 -0.28010559 23.28153992 C-0.26332733 20.95814873 -0.22567855 18.6356285 -0.1875 16.3125 C-0.17245197 14.73634066 -0.15876377 13.16016771 -0.14648438 11.58398438 C-0.11342685 7.72232123 -0.06165194 3.86130822 0 0 Z " fill="#E6FEFC" transform="translate(173,197)"/>
<path d="M0 0 C0.33 0.66 0.66 1.32 1 2 C1.66 2 2.32 2 3 2 C3 5.63 3 9.26 3 13 C2.34 13 1.68 13 1 13 C0.67 16.63 0.34 20.26 0 24 C-0.66 24 -1.32 24 -2 24 C-2 16.41 -2 8.82 -2 1 C-1.34 0.67 -0.68 0.34 0 0 Z " fill="#CBCBCB" transform="translate(131,362)"/>
<path d="M0 0 C1.32 0.33 2.64 0.66 4 1 C3.34 1.66 2.68 2.32 2 3 C1.70642721 5.79303953 1.70642721 5.79303953 1.77294922 9.10205078 C1.77310028 10.38322784 1.77325134 11.66440491 1.77340698 12.98440552 C1.78362105 14.38804274 1.79405305 15.7916784 1.8046875 17.1953125 C1.80841709 18.62734785 1.81126431 20.05938575 1.81326294 21.49142456 C1.82090373 25.26278717 1.84055592 29.03399604 1.8626709 32.80529785 C1.88311981 36.65272949 1.8922626 40.50018594 1.90234375 44.34765625 C1.9238015 51.89850764 1.95794268 59.44923229 2 67 C0.68 66.67 -0.64 66.34 -2 66 C-1.34 66 -0.68 66 0 66 C0 44.22 0 22.44 0 0 Z " fill="#26638F" transform="translate(295,29)"/>
<path d="M0 0 C2.31 0 4.62 0 7 0 C7 0.66 7 1.32 7 2 C7.99 2 8.98 2 10 2 C10 2.66 10 3.32 10 4 C10.78375 4.103125 11.5675 4.20625 12.375 4.3125 C15 5 15 5 17 8 C15.35 8.33 13.7 8.66 12 9 C12 8.34 12 7.68 12 7 C9.03 6.67 6.06 6.34 3 6 C3 5.34 3 4.68 3 4 C2.01 4 1.02 4 0 4 C0 2.68 0 1.36 0 0 Z " fill="#E4E4E4" transform="translate(295,359)"/>
<path d="M0 0 C2 2 2 2 2.24291992 4.85742188 C2.23881104 6.04916016 2.23470215 7.24089844 2.23046875 8.46875 C2.22853516 9.76167969 2.22660156 11.05460938 2.22460938 12.38671875 C2.21840576 13.06138184 2.21220215 13.73604492 2.20581055 14.43115234 C2.18757091 16.49198782 2.18530077 18.55237353 2.18554688 20.61328125 C2.14020451 30.71959098 2.14020451 30.71959098 1 33 C1.99 33 2.98 33 4 33 C4 33.99 4 34.98 4 36 C2.68 35.67 1.36 35.34 0 35 C-0.79139661 32.09821242 -1.0086739 30.05435646 -0.53125 27.0625 C0.29394495 21.75488514 0.10573021 16.41972064 0.0625 11.0625 C0.05798828 9.99708984 0.05347656 8.93167969 0.04882812 7.83398438 C0.03711787 5.22259709 0.02071724 2.61132876 0 0 Z " fill="#146DA5" transform="translate(167,201)"/>
<path d="M0 0 C3.59648818 0.79921959 5.54283289 1.45434894 7.9375 4.3125 C9.55576681 9.92883776 8.7072499 15.25678995 8 21 C7.67 21 7.34 21 7 21 C5.96409801 15.94997778 5.89748328 11.12583611 6 6 C5.01 6 4.02 6 3 6 C3 5.34 3 4.68 3 4 C2.01 3.67 1.02 3.34 0 3 C0 2.01 0 1.02 0 0 Z " fill="#31789C" transform="translate(337,33)"/>
<path d="M0 0 C1.134375 0.020625 2.26875 0.04125 3.4375 0.0625 C3.1075 2.3725 2.7775 4.6825 2.4375 7.0625 C0.1275 7.0625 -2.1825 7.0625 -4.5625 7.0625 C-4.60504356 5.06295254 -4.60330783 3.06208364 -4.5625 1.0625 C-3.5625 0.0625 -3.5625 0.0625 0 0 Z " fill="#DCDCDC" transform="translate(112.5625,371.9375)"/>
<path d="M0 0 C0.33 0 0.66 0 1 0 C1 3.63 1 7.26 1 11 C-1.64 11 -4.28 11 -7 11 C-7 14.96 -7 18.92 -7 23 C-7.66 23 -8.32 23 -9 23 C-9.02685938 20.85423363 -9.04633088 18.70837355 -9.0625 16.5625 C-9.07410156 15.36753906 -9.08570313 14.17257812 -9.09765625 12.94140625 C-9 10 -9 10 -8 9 C-5.32941149 8.85884839 -2.67567762 8.95752893 0 9 C0 6.03 0 3.06 0 0 Z " fill="#707070" transform="translate(192,352)"/>
<path d="M0 0 C7.59 0 15.18 0 23 0 C22.67 0.66 22.34 1.32 22 2 C16.39 1.67 10.78 1.34 5 1 C4.67 2.32 4.34 3.64 4 5 C3.67 4.67 3.34 4.34 3 4 C2.67 5.65 2.34 7.3 2 9 C0 6 0 6 0 0 Z " fill="#3B3B3B" transform="translate(99,352)"/>
<path d="M0 0 C2.97 0 5.94 0 9 0 C9 1.65 9 3.3 9 5 C6.03 5 3.06 5 0 5 C0 3.35 0 1.7 0 0 Z " fill="#D0D0D0" transform="translate(328,361)"/>
<path d="M0 0 C2.31 0 4.62 0 7 0 C7 0.99 7 1.98 7 3 C7.639375 3.28875 8.27875 3.5775 8.9375 3.875 C11 5 11 5 12 7 C12.039992 8.99960012 12.04346799 11.00047242 12 13 C9.67527795 10.14693203 8.2491742 7.45925163 7 4 C5.68 4 4.36 4 3 4 C3 3.34 3 2.68 3 2 C2.01 1.67 1.02 1.34 0 1 C0 0.67 0 0.34 0 0 Z " fill="#B3E2ED" transform="translate(334,28)"/>
<path d="M0 0 C9.9 0 19.8 0 30 0 C30 0.66 30 1.32 30 2 C24.61161826 3.12780083 24.61161826 3.12780083 21.90625 2.5625 C17.68958533 1.74637135 13.47199121 1.63239483 9.1875 1.4375 C8.30384766 1.39431641 7.42019531 1.35113281 6.50976562 1.30664062 C4.34000377 1.20108464 2.1700209 1.10008929 0 1 C0 0.67 0 0.34 0 0 Z " fill="#196BA4" transform="translate(221,136)"/>
<path d="M0 0 C1.65322266 0.01740234 1.65322266 0.01740234 3.33984375 0.03515625 C4.99693359 0.04869141 4.99693359 0.04869141 6.6875 0.0625 C7.54214844 0.07410156 8.39679688 0.08570313 9.27734375 0.09765625 C9.27734375 0.75765625 9.27734375 1.41765625 9.27734375 2.09765625 C8.61734375 2.09765625 7.95734375 2.09765625 7.27734375 2.09765625 C7.27734375 2.75765625 7.27734375 3.41765625 7.27734375 4.09765625 C4.30734375 4.09765625 1.33734375 4.09765625 -1.72265625 4.09765625 C-1.72265625 3.43765625 -1.72265625 2.77765625 -1.72265625 2.09765625 C-2.38265625 1.76765625 -3.04265625 1.43765625 -3.72265625 1.09765625 C-2.72265625 0.09765625 -2.72265625 0.09765625 0 0 Z " fill="#F2F2F2" transform="translate(331.72265625,372.90234375)"/>
<path d="M0 0 C0 0.66 0 1.32 0 2 C-3.3 2 -6.6 2 -10 2 C-10 1.34 -10 0.68 -10 0 C-11.32 0 -12.64 0 -14 0 C-14 -0.66 -14 -1.32 -14 -2 C-8.85934887 -3.71355038 -4.81414105 -2.06320331 0 0 Z " fill="#D5D5D5" transform="translate(300,375)"/>
<path d="M0 0 C0.99 0 1.98 0 3 0 C3 12.21 3 24.42 3 37 C2.67 37 2.34 37 2 37 C1.97494385 35.98574951 1.9498877 34.97149902 1.92407227 33.92651367 C1.82990355 30.16368973 1.72970595 26.40104631 1.62768555 22.63842773 C1.58437251 21.00988996 1.54269482 19.38130784 1.50268555 17.75268555 C1.44489497 15.41181065 1.38122602 13.07115824 1.31640625 10.73046875 C1.29969376 10.00224411 1.28298126 9.27401947 1.26576233 8.52372742 C1.17532762 5.43833061 0.98276007 2.94828022 0 0 Z " fill="#2D698A" transform="translate(168,197)"/>
<path d="M0 0 C1.18613892 0.00785522 1.18613892 0.00785522 2.39624023 0.01586914 C3.67724609 0.02070313 3.67724609 0.02070313 4.98413086 0.02563477 C5.88196289 0.03401367 6.77979492 0.04239258 7.70483398 0.05102539 C8.6065332 0.05553711 9.50823242 0.06004883 10.43725586 0.06469727 C12.67234712 0.07652315 14.90730835 0.09300319 17.14233398 0.11352539 C17.14233398 0.44352539 17.14233398 0.77352539 17.14233398 1.11352539 C7.78031883 2.14963774 7.78031883 2.14963774 3.82983398 1.92602539 C0.24265342 2.1762938 -1.29133589 3.69815586 -3.85766602 6.11352539 C-2.79098027 0.17056194 -2.79098027 0.17056194 0 0 Z " fill="#126FA8" transform="translate(301.857666015625,29.886474609375)"/>
<path d="M0 0 C1.5 1.125 1.5 1.125 3 3 C3.1875 6.1875 3.1875 6.1875 3 9 C3.66 9 4.32 9 5 9 C5 9.66 5 10.32 5 11 C3.35 11 1.7 11 0 11 C0 10.01 0 9.02 0 8 C-0.66 8 -1.32 8 -2 8 C-2 7.01 -2 6.02 -2 5 C-1.34 5 -0.68 5 0 5 C0 3.35 0 1.7 0 0 Z " fill="#E4E4E4" transform="translate(228,363)"/>
<path d="M0 0 C1.65 0 3.3 0 5 0 C5 5.28 5 10.56 5 16 C4.34 16 3.68 16 3 16 C3 11.38 3 6.76 3 2 C2.01 2 1.02 2 0 2 C0 1.34 0 0.68 0 0 Z " fill="#858585" transform="translate(168,361)"/>
<path d="M0 0 C0.99 0 1.98 0 3 0 C3 0.66 3 1.32 3 2 C3.66 2 4.32 2 5 2 C5 2.66 5 3.32 5 4 C6.32 4 7.64 4 9 4 C9 4.66 9 5.32 9 6 C6.36 6 3.72 6 1 6 C0.67 6.99 0.34 7.98 0 9 C0 6.03 0 3.06 0 0 Z " fill="#ECECEC" transform="translate(279,380)"/>
<path d="M0 0 C0.33 0.66 0.66 1.32 1 2 C1.66 2 2.32 2 3 2 C3 5.63 3 9.26 3 13 C2.01 12.67 1.02 12.34 0 12 C0 8.7 0 5.4 0 2 C-0.66 1.67 -1.32 1.34 -2 1 C-1.34 0.67 -0.68 0.34 0 0 Z " fill="#D9D9D9" transform="translate(131,362)"/>
<path d="M0 0 C0.66 0 1.32 0 2 0 C2 1.65 2 3.3 2 5 C2.66 5 3.32 5 4 5 C4 6.65 4 8.3 4 10 C4.66 10 5.32 10 6 10 C6.33 12.64 6.66 15.28 7 18 C6.34 18 5.68 18 5 18 C5 16.68 5 15.36 5 14 C4.34 14 3.68 14 3 14 C3 11.69 3 9.38 3 7 C2.34 7 1.68 7 1 7 C0.67 4.69 0.34 2.38 0 0 Z " fill="#787878" transform="translate(196,347)"/>
<path d="M0 0 C3.96 0 7.92 0 12 0 C12 0.99 12 1.98 12 3 C8.04 3 4.08 3 0 3 C0 2.01 0 1.02 0 0 Z " fill="#C0C0C0" transform="translate(267,349)"/>
<path d="M0 0 C0.33 1.65 0.66 3.3 1 5 C0.34 5 -0.32 5 -1 5 C-1.33 6.32 -1.66 7.64 -2 9 C-2.66 9 -3.32 9 -4 9 C-3.67 6.69 -3.34 4.38 -3 2 C-4.98 2 -6.96 2 -9 2 C-9 1.67 -9 1.34 -9 1 C-2.25 0 -2.25 0 0 0 Z " fill="#3E3E3E" transform="translate(119,370)"/>
<path d="M0 0 C0.33 0 0.66 0 1 0 C1 1.65 1 3.3 1 5 C0.34 5 -0.32 5 -1 5 C-1 6.32 -1 7.64 -1 9 C-4.96 9 -8.92 9 -13 9 C-12.67 8.34 -12.34 7.68 -12 7 C-9.03 7 -6.06 7 -3 7 C-2.67 5.35 -2.34 3.7 -2 2 C-1.34 2 -0.68 2 0 2 C0 1.34 0 0.68 0 0 Z " fill="#323232" transform="translate(250,377)"/>
<path d="M0 0 C0 0.99 0 1.98 0 3 C-3.63 2.67 -7.26 2.34 -11 2 C-11 2.66 -11 3.32 -11 4 C-13.31 4.33 -15.62 4.66 -18 5 C-18 4.34 -18 3.68 -18 3 C-14.3763061 1.37626831 -11.26623785 0.66627127 -7.3125 0.375 C-6.35988281 0.30023438 -5.40726563 0.22546875 -4.42578125 0.1484375 C-2.95244713 0.05828179 -1.47608993 0 0 0 Z " fill="#999999" transform="translate(117,363)"/>
<path d="M0 0 C2.31 0 4.62 0 7 0 C7 0.66 7 1.32 7 2 C6.01 2.33 5.02 2.66 4 3 C7.465 4.485 7.465 4.485 11 6 C8.13822943 7.43088528 6.06624227 6.59991697 3 6 C3 5.34 3 4.68 3 4 C2.01 4 1.02 4 0 4 C0 2.68 0 1.36 0 0 Z " fill="#8A8A8A" transform="translate(295,359)"/>
<path d="M0 0 C1.6875 2.25 1.6875 2.25 1.4375 4.5 C1.19 5.0775 0.9425 5.655 0.6875 6.25 C0.3575 5.26 0.0275 4.27 -0.3125 3.25 C-1.6325 3.25 -2.9525 3.25 -4.3125 3.25 C-4.6425 2.59 -4.9725 1.93 -5.3125 1.25 C-6.26125 1.29125 -7.21 1.3325 -8.1875 1.375 C-11.3125 1.25 -11.3125 1.25 -13.3125 -0.75 C-3.07277397 -2.32534247 -3.07277397 -2.32534247 0 0 Z " fill="#126CA6" transform="translate(335.3125,30.75)"/>
<path d="M0 0 C3.3 0 6.6 0 10 0 C10 0.66 10 1.32 10 2 C6.62902617 3.49821059 4.79557881 4 1 4 C0.67 2.68 0.34 1.36 0 0 Z " fill="#CACACA" transform="translate(101,386)"/>
<path d="M0 0 C2.31 0.33 4.62 0.66 7 1 C7 2.65 7 4.3 7 6 C4.69 6 2.38 6 0 6 C0 5.34 0 4.68 0 4 C1.65 4 3.3 4 5 4 C5 3.34 5 2.68 5 2 C3.35 1.67 1.7 1.34 0 1 C0 0.67 0 0.34 0 0 Z " fill="#555555" transform="translate(295,373)"/>
<path d="M0 0 C2.64 0 5.28 0 8 0 C8.33 0.66 8.66 1.32 9 2 C8.01 2 7.02 2 6 2 C6 2.66 6 3.32 6 4 C3.69 4 1.38 4 -1 4 C-0.34 3.34 0.32 2.68 1 2 C0.67 1.34 0.34 0.68 0 0 Z " fill="#030303" transform="translate(328,367)"/>
<path d="M0 0 C1.65 0 3.3 0 5 0 C5 0.66 5 1.32 5 2 C4.01 2.495 4.01 2.495 3 3 C2.34227572 6.02934491 2.34227572 6.02934491 2 9 C1.34 9 0.68 9 0 9 C0 6.03 0 3.06 0 0 Z " fill="#2C2C2C" transform="translate(168,352)"/>
<path d="M0 0 C1.98 0 3.96 0 6 0 C5.34 1.65 4.68 3.3 4 5 C2.68 5 1.36 5 0 5 C0 3.35 0 1.7 0 0 Z " fill="#E7E7E7" transform="translate(72,354)"/>
<path d="M0 0 C0.66 0 1.32 0 2 0 C2 0.66 2 1.32 2 2 C2.66 2 3.32 2 4 2 C4 3.65 4 5.3 4 7 C2.68 7 1.36 7 0 7 C-1.04449911 3.86650268 -0.93423645 3.01031744 0 0 Z " fill="#424242" transform="translate(162,354)"/>
<path d="M0 0 C0.33 0 0.66 0 1 0 C1 3.63 1 7.26 1 11 C-0.98 11 -2.96 11 -5 11 C-5 10.34 -5 9.68 -5 9 C-3.68 9 -2.36 9 -1 9 C-0.67 6.03 -0.34 3.06 0 0 Z " fill="#D1D1D1" transform="translate(167,352)"/>
<path d="M0 0 C0.66 0.33 1.32 0.66 2 1 C1.67 2.65 1.34 4.3 1 6 C0.34 6 -0.32 6 -1 6 C-1 7.65 -1 9.3 -1 11 C-1.66 11 -2.32 11 -3 11 C-3 8.03 -3 5.06 -3 2 C-2.01 2 -1.02 2 0 2 C0 1.34 0 0.68 0 0 Z " fill="#5B5B5B" transform="translate(259,350)"/>
<path d="M0 0 C0.66 0 1.32 0 2 0 C1.67 2.64 1.34 5.28 1 8 C0.34 8 -0.32 8 -1 8 C-1 9.32 -1 10.64 -1 12 C-1.66 12 -2.32 12 -3 12 C-2.67 9.69 -2.34 7.38 -2 5 C-1.34 5 -0.68 5 0 5 C0 3.35 0 1.7 0 0 Z " fill="#999999" transform="translate(254,365)"/>
<path d="M0 0 C2.31 0 4.62 0 7 0 C6.34 0.66 5.68 1.32 5 2 C5.66 3.32 6.32 4.64 7 6 C5.68 5.67 4.36 5.34 3 5 C3 4.34 3 3.68 3 3 C2.34 3 1.68 3 1 3 C0.67 2.01 0.34 1.02 0 0 Z " fill="#D6D6D6" transform="translate(343,374)"/>
<path d="M0 0 C0.66 0 1.32 0 2 0 C1.67 2.31 1.34 4.62 1 7 C0.34 7 -0.32 7 -1 7 C-1 8.32 -1 9.64 -1 11 C-1.66 10.67 -2.32 10.34 -3 10 C-2.67 7.69 -2.34 5.38 -2 3 C-1.34 3 -0.68 3 0 3 C0 2.01 0 1.02 0 0 Z " fill="#8C8C8C" transform="translate(245,354)"/>
<path d="M0 0 C0.99 0 1.98 0 3 0 C2.67 2.31 2.34 4.62 2 7 C0.68 7 -0.64 7 -2 7 C-1.34 4.69 -0.68 2.38 0 0 Z " fill="#D7D7D7" transform="translate(311,354)"/>
<path d="M0 0 C1.32 0 2.64 0 4 0 C4 0.66 4 1.32 4 2 C3.01 2.33 2.02 2.66 1 3 C-0.37195574 4.29355827 -1.71182656 5.62298702 -3 7 C-3.33 6.01 -3.66 5.02 -4 4 C-3.34 4 -2.68 4 -2 4 C-2 3.34 -2 2.68 -2 2 C-1.34 2 -0.68 2 0 2 C0 1.34 0 0.68 0 0 Z " fill="#3B3B3B" transform="translate(286,375)"/>
<path d="M0 0 C1.65322266 0.01740234 1.65322266 0.01740234 3.33984375 0.03515625 C4.99693359 0.04869141 4.99693359 0.04869141 6.6875 0.0625 C7.54214844 0.07410156 8.39679688 0.08570313 9.27734375 0.09765625 C8.94734375 0.75765625 8.61734375 1.41765625 8.27734375 2.09765625 C5.63734375 1.76765625 2.99734375 1.43765625 0.27734375 1.09765625 C0.27734375 2.08765625 0.27734375 3.07765625 0.27734375 4.09765625 C-0.38265625 4.09765625 -1.04265625 4.09765625 -1.72265625 4.09765625 C-1.72265625 3.43765625 -1.72265625 2.77765625 -1.72265625 2.09765625 C-2.38265625 1.76765625 -3.04265625 1.43765625 -3.72265625 1.09765625 C-2.72265625 0.09765625 -2.72265625 0.09765625 0 0 Z " fill="#C5C5C5" transform="translate(331.72265625,372.90234375)"/>
<path d="M0 0 C0.33 0.66 0.66 1.32 1 2 C1.66 2 2.32 2 3 2 C3 2.66 3 3.32 3 4 C1.68 4 0.36 4 -1 4 C-1 4.66 -1 5.32 -1 6 C-2.65 6 -4.3 6 -6 6 C-5.01 5.67 -4.02 5.34 -3 5 C-2.67 4.01 -2.34 3.02 -2 2 C-1.34 2 -0.68 2 0 2 C0 1.34 0 0.68 0 0 Z " fill="#2D2D2D" transform="translate(343,380)"/>
<path d="M0 0 C0.33 0.66 0.66 1.32 1 2 C1.66 2 2.32 2 3 2 C3 3.32 3 4.64 3 6 C2.01 5.67 1.02 5.34 0 5 C-2.14255793 5.38932856 -2.14255793 5.38932856 -4 6 C-4 5.34 -4 4.68 -4 4 C-3.01 4 -2.02 4 -1 4 C-0.67 2.68 -0.34 1.36 0 0 Z " fill="#E5E5E5" transform="translate(170,375)"/>
<path d="M0 0 C0.125 2.375 0.125 2.375 0 5 C-0.66 5.66 -1.32 6.32 -2 7 C-2.99 7 -3.98 7 -5 7 C-5 6.34 -5 5.68 -5 5 C-4.34 5 -3.68 5 -3 5 C-3 3.68 -3 2.36 -3 1 C-1 0 -1 0 0 0 Z " fill="#F2F2F2" transform="translate(256,372)"/>
<path d="M0 0 C3.63 0.33 7.26 0.66 11 1 C10.67 1.66 10.34 2.32 10 3 C7.36 3 4.72 3 2 3 C2 2.34 2 1.68 2 1 C1.34 0.67 0.68 0.34 0 0 Z " fill="#2A2A2A" transform="translate(330,351)"/>
<path d="M0 0 C2.31 0 4.62 0 7 0 C7 1.32 7 2.64 7 4 C6.34 4 5.68 4 5 4 C5 3.34 5 2.68 5 2 C3.35 2 1.7 2 0 2 C0 1.34 0 0.68 0 0 Z " fill="#999999" transform="translate(157,373)"/>
<path d="M0 0 C2.31 0 4.62 0 7 0 C5.68 0.33 4.36 0.66 3 1 C3 1.66 3 2.32 3 3 C1.35 3.33 -0.3 3.66 -2 4 C-2 3.34 -2 2.68 -2 2 C-1.34 2 -0.68 2 0 2 C0 1.34 0 0.68 0 0 Z " fill="#3C3C3C" transform="translate(323,352)"/>
<path d="M0 0 C1.5 1.125 1.5 1.125 3 3 C3.1875 6.1875 3.1875 6.1875 3 9 C0.90250005 6.64031256 0.03094296 5.45383006 -0.1875 2.25 C-0.125625 1.5075 -0.06375 0.765 0 0 Z " fill="#C3E9F3" transform="translate(343,32)"/>
</svg>
